<?xml version="1.0" encoding="utf-8" standalone="no"?>
<!DOCTYPE svg PUBLIC "-//W3C//DTD SVG 1.1//EN"
  "http://www.w3.org/Graphics/SVG/1.1/DTD/svg11.dtd">
<svg xmlns:xlink="http://www.w3.org/1999/xlink" width="118.927148pt" height="125.094616pt" viewBox="0 0 118.927148 125.094616" xmlns="http://www.w3.org/2000/svg" version="1.1">
 <metadata>
  <rdf:RDF xmlns:dc="http://purl.org/dc/elements/1.1/" xmlns:cc="http://creativecommons.org/ns#" xmlns:rdf="http://www.w3.org/1999/02/22-rdf-syntax-ns#">
   <cc:Work>
    <dc:type rdf:resource="http://purl.org/dc/dcmitype/StillImage"/>
    <dc:date>2025-07-05T22:17:23.006318</dc:date>
    <dc:format>image/svg+xml</dc:format>
    <dc:creator>
     <cc:Agent>
      <dc:title>Matplotlib v3.10.3, https://matplotlib.org/</dc:title>
     </cc:Agent>
    </dc:creator>
   </cc:Work>
  </rdf:RDF>
 </metadata>
 <defs>
  <style type="text/css">*{stroke-linejoin: round; stroke-linecap: butt}</style>
 </defs>
 <g id="figure_1">
  <g id="patch_1">
   <path d="M 0 125.094616 
L 118.927148 125.094616 
L 118.927148 -0 
L 0 -0 
z
" style="fill: #ffffff"/>
  </g>
  <g id="axes_1">
   <g id="patch_2">
    <path d="M 29.722656 97.749304 
L 102.451952 97.749304 
L 102.451952 31.285515 
L 29.722656 31.285515 
z
" style="fill: #ffffff"/>
   </g>
   <g id="QuadMesh_1">
    <path d="M 29.722656 97.749304 
L 33.359121 97.749304 
L 33.359121 94.426114 
L 29.722656 94.426114 
L 29.722656 97.749304 
" clip-path="url(#p026059a2ce)" style="fill: #abd0e6"/>
    <path d="M 33.359121 97.749304 
L 36.995586 97.749304 
L 36.995586 94.426114 
L 33.359121 94.426114 
L 33.359121 97.749304 
" clip-path="url(#p026059a2ce)" style="fill: #abd0e6"/>
    <path d="M 36.995586 97.749304 
L 40.632051 97.749304 
L 40.632051 94.426114 
L 36.995586 94.426114 
L 36.995586 97.749304 
" clip-path="url(#p026059a2ce)" style="fill: #abd0e6"/>
    <path d="M 40.632051 97.749304 
L 44.268515 97.749304 
L 44.268515 94.426114 
L 40.632051 94.426114 
L 40.632051 97.749304 
" clip-path="url(#p026059a2ce)" style="fill: #abd0e6"/>
    <path d="M 44.268515 97.749304 
L 47.90498 97.749304 
L 47.90498 94.426114 
L 44.268515 94.426114 
L 44.268515 97.749304 
" clip-path="url(#p026059a2ce)" style="fill: #abd0e6"/>
    <path d="M 47.90498 97.749304 
L 51.541445 97.749304 
L 51.541445 94.426114 
L 47.90498 94.426114 
L 47.90498 97.749304 
" clip-path="url(#p026059a2ce)" style="fill: #abd0e6"/>
    <path d="M 51.541445 97.749304 
L 55.17791 97.749304 
L 55.17791 94.426114 
L 51.541445 94.426114 
L 51.541445 97.749304 
" clip-path="url(#p026059a2ce)" style="fill: #abd0e6"/>
    <path d="M 55.17791 97.749304 
L 58.814374 97.749304 
L 58.814374 94.426114 
L 55.17791 94.426114 
L 55.17791 97.749304 
" clip-path="url(#p026059a2ce)" style="fill: #08306b"/>
    <path d="M 58.814374 97.749304 
L 62.450839 97.749304 
L 62.450839 94.426114 
L 58.814374 94.426114 
L 58.814374 97.749304 
" clip-path="url(#p026059a2ce)" style="fill: #08306b"/>
    <path d="M 62.450839 97.749304 
L 66.087304 97.749304 
L 66.087304 94.426114 
L 62.450839 94.426114 
L 62.450839 97.749304 
" clip-path="url(#p026059a2ce)" style="fill: #08306b"/>
    <path d="M 66.087304 97.749304 
L 69.723769 97.749304 
L 69.723769 94.426114 
L 66.087304 94.426114 
L 66.087304 97.749304 
" clip-path="url(#p026059a2ce)" style="fill: #08306b"/>
    <path d="M 69.723769 97.749304 
L 73.360234 97.749304 
L 73.360234 94.426114 
L 69.723769 94.426114 
L 69.723769 97.749304 
" clip-path="url(#p026059a2ce)" style="fill: #08306b"/>
    <path d="M 73.360234 97.749304 
L 76.996698 97.749304 
L 76.996698 94.426114 
L 73.360234 94.426114 
L 73.360234 97.749304 
" clip-path="url(#p026059a2ce)" style="fill: #3787c0"/>
    <path d="M 76.996698 97.749304 
L 80.633163 97.749304 
L 80.633163 94.426114 
L 76.996698 94.426114 
L 76.996698 97.749304 
" clip-path="url(#p026059a2ce)" style="fill: #3787c0"/>
    <path d="M 80.633163 97.749304 
L 84.269628 97.749304 
L 84.269628 94.426114 
L 80.633163 94.426114 
L 80.633163 97.749304 
" clip-path="url(#p026059a2ce)" style="fill: #3787c0"/>
    <path d="M 84.269628 97.749304 
L 87.906093 97.749304 
L 87.906093 94.426114 
L 84.269628 94.426114 
L 84.269628 97.749304 
" clip-path="url(#p026059a2ce)" style="fill: #3787c0"/>
    <path d="M 87.906093 97.749304 
L 91.542558 97.749304 
L 91.542558 94.426114 
L 87.906093 94.426114 
L 87.906093 97.749304 
" clip-path="url(#p026059a2ce)" style="fill: #3787c0"/>
    <path d="M 91.542558 97.749304 
L 95.179022 97.749304 
L 95.179022 94.426114 
L 91.542558 94.426114 
L 91.542558 97.749304 
" clip-path="url(#p026059a2ce)" style="fill: #3787c0"/>
    <path d="M 95.179022 97.749304 
L 98.815487 97.749304 
L 98.815487 94.426114 
L 95.179022 94.426114 
L 95.179022 97.749304 
" clip-path="url(#p026059a2ce)" style="fill: #3787c0"/>
    <path d="M 98.815487 97.749304 
L 102.451952 97.749304 
L 102.451952 94.426114 
L 98.815487 94.426114 
L 98.815487 97.749304 
" clip-path="url(#p026059a2ce)" style="fill: #3787c0"/>
    <path d="M 29.722656 94.426114 
L 33.359121 94.426114 
L 33.359121 91.102925 
L 29.722656 91.102925 
L 29.722656 94.426114 
" clip-path="url(#p026059a2ce)" style="fill: #abd0e6"/>
    <path d="M 33.359121 94.426114 
L 36.995586 94.426114 
L 36.995586 91.102925 
L 33.359121 91.102925 
L 33.359121 94.426114 
" clip-path="url(#p026059a2ce)" style="fill: #abd0e6"/>
    <path d="M 36.995586 94.426114 
L 40.632051 94.426114 
L 40.632051 91.102925 
L 36.995586 91.102925 
L 36.995586 94.426114 
" clip-path="url(#p026059a2ce)" style="fill: #abd0e6"/>
    <path d="M 40.632051 94.426114 
L 44.268515 94.426114 
L 44.268515 91.102925 
L 40.632051 91.102925 
L 40.632051 94.426114 
" clip-path="url(#p026059a2ce)" style="fill: #abd0e6"/>
    <path d="M 44.268515 94.426114 
L 47.90498 94.426114 
L 47.90498 91.102925 
L 44.268515 91.102925 
L 44.268515 94.426114 
" clip-path="url(#p026059a2ce)" style="fill: #abd0e6"/>
    <path d="M 47.90498 94.426114 
L 51.541445 94.426114 
L 51.541445 91.102925 
L 47.90498 91.102925 
L 47.90498 94.426114 
" clip-path="url(#p026059a2ce)" style="fill: #abd0e6"/>
    <path d="M 51.541445 94.426114 
L 55.17791 94.426114 
L 55.17791 91.102925 
L 51.541445 91.102925 
L 51.541445 94.426114 
" clip-path="url(#p026059a2ce)" style="fill: #abd0e6"/>
    <path d="M 55.17791 94.426114 
L 58.814374 94.426114 
L 58.814374 91.102925 
L 55.17791 91.102925 
L 55.17791 94.426114 
" clip-path="url(#p026059a2ce)" style="fill: #08306b"/>
    <path d="M 58.814374 94.426114 
L 62.450839 94.426114 
L 62.450839 91.102925 
L 58.814374 91.102925 
L 58.814374 94.426114 
" clip-path="url(#p026059a2ce)" style="fill: #08306b"/>
    <path d="M 62.450839 94.426114 
L 66.087304 94.426114 
L 66.087304 91.102925 
L 62.450839 91.102925 
L 62.450839 94.426114 
" clip-path="url(#p026059a2ce)" style="fill: #08306b"/>
    <path d="M 66.087304 94.426114 
L 69.723769 94.426114 
L 69.723769 91.102925 
L 66.087304 91.102925 
L 66.087304 94.426114 
" clip-path="url(#p026059a2ce)" style="fill: #08306b"/>
    <path d="M 69.723769 94.426114 
L 73.360234 94.426114 
L 73.360234 91.102925 
L 69.723769 91.102925 
L 69.723769 94.426114 
" clip-path="url(#p026059a2ce)" style="fill: #3787c0"/>
    <path d="M 73.360234 94.426114 
L 76.996698 94.426114 
L 76.996698 91.102925 
L 73.360234 91.102925 
L 73.360234 94.426114 
" clip-path="url(#p026059a2ce)" style="fill: #3787c0"/>
    <path d="M 76.996698 94.426114 
L 80.633163 94.426114 
L 80.633163 91.102925 
L 76.996698 91.102925 
L 76.996698 94.426114 
" clip-path="url(#p026059a2ce)" style="fill: #3787c0"/>
    <path d="M 80.633163 94.426114 
L 84.269628 94.426114 
L 84.269628 91.102925 
L 80.633163 91.102925 
L 80.633163 94.426114 
" clip-path="url(#p026059a2ce)" style="fill: #3787c0"/>
    <path d="M 84.269628 94.426114 
L 87.906093 94.426114 
L 87.906093 91.102925 
L 84.269628 91.102925 
L 84.269628 94.426114 
" clip-path="url(#p026059a2ce)" style="fill: #3787c0"/>
    <path d="M 87.906093 94.426114 
L 91.542558 94.426114 
L 91.542558 91.102925 
L 87.906093 91.102925 
L 87.906093 94.426114 
" clip-path="url(#p026059a2ce)" style="fill: #3787c0"/>
    <path d="M 91.542558 94.426114 
L 95.179022 94.426114 
L 95.179022 91.102925 
L 91.542558 91.102925 
L 91.542558 94.426114 
" clip-path="url(#p026059a2ce)" style="fill: #3787c0"/>
    <path d="M 95.179022 94.426114 
L 98.815487 94.426114 
L 98.815487 91.102925 
L 95.179022 91.102925 
L 95.179022 94.426114 
" clip-path="url(#p026059a2ce)" style="fill: #3787c0"/>
    <path d="M 98.815487 94.426114 
L 102.451952 94.426114 
L 102.451952 91.102925 
L 98.815487 91.102925 
L 98.815487 94.426114 
" clip-path="url(#p026059a2ce)" style="fill: #f7fbff"/>
    <path d="M 29.722656 91.102925 
L 33.359121 91.102925 
L 33.359121 87.779736 
L 29.722656 87.779736 
L 29.722656 91.102925 
" clip-path="url(#p026059a2ce)" style="fill: #abd0e6"/>
    <path d="M 33.359121 91.102925 
L 36.995586 91.102925 
L 36.995586 87.779736 
L 33.359121 87.779736 
L 33.359121 91.102925 
" clip-path="url(#p026059a2ce)" style="fill: #abd0e6"/>
    <path d="M 36.995586 91.102925 
L 40.632051 91.102925 
L 40.632051 87.779736 
L 36.995586 87.779736 
L 36.995586 91.102925 
" clip-path="url(#p026059a2ce)" style="fill: #abd0e6"/>
    <path d="M 40.632051 91.102925 
L 44.268515 91.102925 
L 44.268515 87.779736 
L 40.632051 87.779736 
L 40.632051 91.102925 
" clip-path="url(#p026059a2ce)" style="fill: #abd0e6"/>
    <path d="M 44.268515 91.102925 
L 47.90498 91.102925 
L 47.90498 87.779736 
L 44.268515 87.779736 
L 44.268515 91.102925 
" clip-path="url(#p026059a2ce)" style="fill: #abd0e6"/>
    <path d="M 47.90498 91.102925 
L 51.541445 91.102925 
L 51.541445 87.779736 
L 47.90498 87.779736 
L 47.90498 91.102925 
" clip-path="url(#p026059a2ce)" style="fill: #abd0e6"/>
    <path d="M 51.541445 91.102925 
L 55.17791 91.102925 
L 55.17791 87.779736 
L 51.541445 87.779736 
L 51.541445 91.102925 
" clip-path="url(#p026059a2ce)" style="fill: #08306b"/>
    <path d="M 55.17791 91.102925 
L 58.814374 91.102925 
L 58.814374 87.779736 
L 55.17791 87.779736 
L 55.17791 91.102925 
" clip-path="url(#p026059a2ce)" style="fill: #08306b"/>
    <path d="M 58.814374 91.102925 
L 62.450839 91.102925 
L 62.450839 87.779736 
L 58.814374 87.779736 
L 58.814374 91.102925 
" clip-path="url(#p026059a2ce)" style="fill: #08306b"/>
    <path d="M 62.450839 91.102925 
L 66.087304 91.102925 
L 66.087304 87.779736 
L 62.450839 87.779736 
L 62.450839 91.102925 
" clip-path="url(#p026059a2ce)" style="fill: #08306b"/>
    <path d="M 66.087304 91.102925 
L 69.723769 91.102925 
L 69.723769 87.779736 
L 66.087304 87.779736 
L 66.087304 91.102925 
" clip-path="url(#p026059a2ce)" style="fill: #08306b"/>
    <path d="M 69.723769 91.102925 
L 73.360234 91.102925 
L 73.360234 87.779736 
L 69.723769 87.779736 
L 69.723769 91.102925 
" clip-path="url(#p026059a2ce)" style="fill: #3787c0"/>
    <path d="M 73.360234 91.102925 
L 76.996698 91.102925 
L 76.996698 87.779736 
L 73.360234 87.779736 
L 73.360234 91.102925 
" clip-path="url(#p026059a2ce)" style="fill: #3787c0"/>
    <path d="M 76.996698 91.102925 
L 80.633163 91.102925 
L 80.633163 87.779736 
L 76.996698 87.779736 
L 76.996698 91.102925 
" clip-path="url(#p026059a2ce)" style="fill: #3787c0"/>
    <path d="M 80.633163 91.102925 
L 84.269628 91.102925 
L 84.269628 87.779736 
L 80.633163 87.779736 
L 80.633163 91.102925 
" clip-path="url(#p026059a2ce)" style="fill: #3787c0"/>
    <path d="M 84.269628 91.102925 
L 87.906093 91.102925 
L 87.906093 87.779736 
L 84.269628 87.779736 
L 84.269628 91.102925 
" clip-path="url(#p026059a2ce)" style="fill: #3787c0"/>
    <path d="M 87.906093 91.102925 
L 91.542558 91.102925 
L 91.542558 87.779736 
L 87.906093 87.779736 
L 87.906093 91.102925 
" clip-path="url(#p026059a2ce)" style="fill: #f7fbff"/>
    <path d="M 91.542558 91.102925 
L 95.179022 91.102925 
L 95.179022 87.779736 
L 91.542558 87.779736 
L 91.542558 91.102925 
" clip-path="url(#p026059a2ce)" style="fill: #f7fbff"/>
    <path d="M 95.179022 91.102925 
L 98.815487 91.102925 
L 98.815487 87.779736 
L 95.179022 87.779736 
L 95.179022 91.102925 
" clip-path="url(#p026059a2ce)" style="fill: #f7fbff"/>
    <path d="M 98.815487 91.102925 
L 102.451952 91.102925 
L 102.451952 87.779736 
L 98.815487 87.779736 
L 98.815487 91.102925 
" clip-path="url(#p026059a2ce)" style="fill: #f7fbff"/>
    <path d="M 29.722656 87.779736 
L 33.359121 87.779736 
L 33.359121 84.456546 
L 29.722656 84.456546 
L 29.722656 87.779736 
" clip-path="url(#p026059a2ce)" style="fill: #abd0e6"/>
    <path d="M 33.359121 87.779736 
L 36.995586 87.779736 
L 36.995586 84.456546 
L 33.359121 84.456546 
L 33.359121 87.779736 
" clip-path="url(#p026059a2ce)" style="fill: #abd0e6"/>
    <path d="M 36.995586 87.779736 
L 40.632051 87.779736 
L 40.632051 84.456546 
L 36.995586 84.456546 
L 36.995586 87.779736 
" clip-path="url(#p026059a2ce)" style="fill: #abd0e6"/>
    <path d="M 40.632051 87.779736 
L 44.268515 87.779736 
L 44.268515 84.456546 
L 40.632051 84.456546 
L 40.632051 87.779736 
" clip-path="url(#p026059a2ce)" style="fill: #abd0e6"/>
    <path d="M 44.268515 87.779736 
L 47.90498 87.779736 
L 47.90498 84.456546 
L 44.268515 84.456546 
L 44.268515 87.779736 
" clip-path="url(#p026059a2ce)" style="fill: #abd0e6"/>
    <path d="M 47.90498 87.779736 
L 51.541445 87.779736 
L 51.541445 84.456546 
L 47.90498 84.456546 
L 47.90498 87.779736 
" clip-path="url(#p026059a2ce)" style="fill: #abd0e6"/>
    <path d="M 51.541445 87.779736 
L 55.17791 87.779736 
L 55.17791 84.456546 
L 51.541445 84.456546 
L 51.541445 87.779736 
" clip-path="url(#p026059a2ce)" style="fill: #08306b"/>
    <path d="M 55.17791 87.779736 
L 58.814374 87.779736 
L 58.814374 84.456546 
L 55.17791 84.456546 
L 55.17791 87.779736 
" clip-path="url(#p026059a2ce)" style="fill: #08306b"/>
    <path d="M 58.814374 87.779736 
L 62.450839 87.779736 
L 62.450839 84.456546 
L 58.814374 84.456546 
L 58.814374 87.779736 
" clip-path="url(#p026059a2ce)" style="fill: #08306b"/>
    <path d="M 62.450839 87.779736 
L 66.087304 87.779736 
L 66.087304 84.456546 
L 62.450839 84.456546 
L 62.450839 87.779736 
" clip-path="url(#p026059a2ce)" style="fill: #08306b"/>
    <path d="M 66.087304 87.779736 
L 69.723769 87.779736 
L 69.723769 84.456546 
L 66.087304 84.456546 
L 66.087304 87.779736 
" clip-path="url(#p026059a2ce)" style="fill: #08306b"/>
    <path d="M 69.723769 87.779736 
L 73.360234 87.779736 
L 73.360234 84.456546 
L 69.723769 84.456546 
L 69.723769 87.779736 
" clip-path="url(#p026059a2ce)" style="fill: #3787c0"/>
    <path d="M 73.360234 87.779736 
L 76.996698 87.779736 
L 76.996698 84.456546 
L 73.360234 84.456546 
L 73.360234 87.779736 
" clip-path="url(#p026059a2ce)" style="fill: #3787c0"/>
    <path d="M 76.996698 87.779736 
L 80.633163 87.779736 
L 80.633163 84.456546 
L 76.996698 84.456546 
L 76.996698 87.779736 
" clip-path="url(#p026059a2ce)" style="fill: #3787c0"/>
    <path d="M 80.633163 87.779736 
L 84.269628 87.779736 
L 84.269628 84.456546 
L 80.633163 84.456546 
L 80.633163 87.779736 
" clip-path="url(#p026059a2ce)" style="fill: #f7fbff"/>
    <path d="M 84.269628 87.779736 
L 87.906093 87.779736 
L 87.906093 84.456546 
L 84.269628 84.456546 
L 84.269628 87.779736 
" clip-path="url(#p026059a2ce)" style="fill: #f7fbff"/>
    <path d="M 87.906093 87.779736 
L 91.542558 87.779736 
L 91.542558 84.456546 
L 87.906093 84.456546 
L 87.906093 87.779736 
" clip-path="url(#p026059a2ce)" style="fill: #f7fbff"/>
    <path d="M 91.542558 87.779736 
L 95.179022 87.779736 
L 95.179022 84.456546 
L 91.542558 84.456546 
L 91.542558 87.779736 
" clip-path="url(#p026059a2ce)" style="fill: #f7fbff"/>
    <path d="M 95.179022 87.779736 
L 98.815487 87.779736 
L 98.815487 84.456546 
L 95.179022 84.456546 
L 95.179022 87.779736 
" clip-path="url(#p026059a2ce)" style="fill: #f7fbff"/>
    <path d="M 98.815487 87.779736 
L 102.451952 87.779736 
L 102.451952 84.456546 
L 98.815487 84.456546 
L 98.815487 87.779736 
" clip-path="url(#p026059a2ce)" style="fill: #f7fbff"/>
    <path d="M 29.722656 84.456546 
L 33.359121 84.456546 
L 33.359121 81.133357 
L 29.722656 81.133357 
L 29.722656 84.456546 
" clip-path="url(#p026059a2ce)" style="fill: #abd0e6"/>
    <path d="M 33.359121 84.456546 
L 36.995586 84.456546 
L 36.995586 81.133357 
L 33.359121 81.133357 
L 33.359121 84.456546 
" clip-path="url(#p026059a2ce)" style="fill: #abd0e6"/>
    <path d="M 36.995586 84.456546 
L 40.632051 84.456546 
L 40.632051 81.133357 
L 36.995586 81.133357 
L 36.995586 84.456546 
" clip-path="url(#p026059a2ce)" style="fill: #abd0e6"/>
    <path d="M 40.632051 84.456546 
L 44.268515 84.456546 
L 44.268515 81.133357 
L 40.632051 81.133357 
L 40.632051 84.456546 
" clip-path="url(#p026059a2ce)" style="fill: #abd0e6"/>
    <path d="M 44.268515 84.456546 
L 47.90498 84.456546 
L 47.90498 81.133357 
L 44.268515 81.133357 
L 44.268515 84.456546 
" clip-path="url(#p026059a2ce)" style="fill: #abd0e6"/>
    <path d="M 47.90498 84.456546 
L 51.541445 84.456546 
L 51.541445 81.133357 
L 47.90498 81.133357 
L 47.90498 84.456546 
" clip-path="url(#p026059a2ce)" style="fill: #abd0e6"/>
    <path d="M 51.541445 84.456546 
L 55.17791 84.456546 
L 55.17791 81.133357 
L 51.541445 81.133357 
L 51.541445 84.456546 
" clip-path="url(#p026059a2ce)" style="fill: #08306b"/>
    <path d="M 55.17791 84.456546 
L 58.814374 84.456546 
L 58.814374 81.133357 
L 55.17791 81.133357 
L 55.17791 84.456546 
" clip-path="url(#p026059a2ce)" style="fill: #08306b"/>
    <path d="M 58.814374 84.456546 
L 62.450839 84.456546 
L 62.450839 81.133357 
L 58.814374 81.133357 
L 58.814374 84.456546 
" clip-path="url(#p026059a2ce)" style="fill: #08306b"/>
    <path d="M 62.450839 84.456546 
L 66.087304 84.456546 
L 66.087304 81.133357 
L 62.450839 81.133357 
L 62.450839 84.456546 
" clip-path="url(#p026059a2ce)" style="fill: #08306b"/>
    <path d="M 66.087304 84.456546 
L 69.723769 84.456546 
L 69.723769 81.133357 
L 66.087304 81.133357 
L 66.087304 84.456546 
" clip-path="url(#p026059a2ce)" style="fill: #08306b"/>
    <path d="M 69.723769 84.456546 
L 73.360234 84.456546 
L 73.360234 81.133357 
L 69.723769 81.133357 
L 69.723769 84.456546 
" clip-path="url(#p026059a2ce)" style="fill: #3787c0"/>
    <path d="M 73.360234 84.456546 
L 76.996698 84.456546 
L 76.996698 81.133357 
L 73.360234 81.133357 
L 73.360234 84.456546 
" clip-path="url(#p026059a2ce)" style="fill: #3787c0"/>
    <path d="M 76.996698 84.456546 
L 80.633163 84.456546 
L 80.633163 81.133357 
L 76.996698 81.133357 
L 76.996698 84.456546 
" clip-path="url(#p026059a2ce)" style="fill: #f7fbff"/>
    <path d="M 80.633163 84.456546 
L 84.269628 84.456546 
L 84.269628 81.133357 
L 80.633163 81.133357 
L 80.633163 84.456546 
" clip-path="url(#p026059a2ce)" style="fill: #f7fbff"/>
    <path d="M 84.269628 84.456546 
L 87.906093 84.456546 
L 87.906093 81.133357 
L 84.269628 81.133357 
L 84.269628 84.456546 
" clip-path="url(#p026059a2ce)" style="fill: #f7fbff"/>
    <path d="M 87.906093 84.456546 
L 91.542558 84.456546 
L 91.542558 81.133357 
L 87.906093 81.133357 
L 87.906093 84.456546 
" clip-path="url(#p026059a2ce)" style="fill: #f7fbff"/>
    <path d="M 91.542558 84.456546 
L 95.179022 84.456546 
L 95.179022 81.133357 
L 91.542558 81.133357 
L 91.542558 84.456546 
" clip-path="url(#p026059a2ce)" style="fill: #f7fbff"/>
    <path d="M 95.179022 84.456546 
L 98.815487 84.456546 
L 98.815487 81.133357 
L 95.179022 81.133357 
L 95.179022 84.456546 
" clip-path="url(#p026059a2ce)" style="fill: #f7fbff"/>
    <path d="M 98.815487 84.456546 
L 102.451952 84.456546 
L 102.451952 81.133357 
L 98.815487 81.133357 
L 98.815487 84.456546 
" clip-path="url(#p026059a2ce)" style="fill: #f7fbff"/>
    <path d="M 29.722656 81.133357 
L 33.359121 81.133357 
L 33.359121 77.810167 
L 29.722656 77.810167 
L 29.722656 81.133357 
" clip-path="url(#p026059a2ce)" style="fill: #abd0e6"/>
    <path d="M 33.359121 81.133357 
L 36.995586 81.133357 
L 36.995586 77.810167 
L 33.359121 77.810167 
L 33.359121 81.133357 
" clip-path="url(#p026059a2ce)" style="fill: #abd0e6"/>
    <path d="M 36.995586 81.133357 
L 40.632051 81.133357 
L 40.632051 77.810167 
L 36.995586 77.810167 
L 36.995586 81.133357 
" clip-path="url(#p026059a2ce)" style="fill: #abd0e6"/>
    <path d="M 40.632051 81.133357 
L 44.268515 81.133357 
L 44.268515 77.810167 
L 40.632051 77.810167 
L 40.632051 81.133357 
" clip-path="url(#p026059a2ce)" style="fill: #abd0e6"/>
    <path d="M 44.268515 81.133357 
L 47.90498 81.133357 
L 47.90498 77.810167 
L 44.268515 77.810167 
L 44.268515 81.133357 
" clip-path="url(#p026059a2ce)" style="fill: #abd0e6"/>
    <path d="M 47.90498 81.133357 
L 51.541445 81.133357 
L 51.541445 77.810167 
L 47.90498 77.810167 
L 47.90498 81.133357 
" clip-path="url(#p026059a2ce)" style="fill: #abd0e6"/>
    <path d="M 51.541445 81.133357 
L 55.17791 81.133357 
L 55.17791 77.810167 
L 51.541445 77.810167 
L 51.541445 81.133357 
" clip-path="url(#p026059a2ce)" style="fill: #08306b"/>
    <path d="M 55.17791 81.133357 
L 58.814374 81.133357 
L 58.814374 77.810167 
L 55.17791 77.810167 
L 55.17791 81.133357 
" clip-path="url(#p026059a2ce)" style="fill: #08306b"/>
    <path d="M 58.814374 81.133357 
L 62.450839 81.133357 
L 62.450839 77.810167 
L 58.814374 77.810167 
L 58.814374 81.133357 
" clip-path="url(#p026059a2ce)" style="fill: #08306b"/>
    <path d="M 62.450839 81.133357 
L 66.087304 81.133357 
L 66.087304 77.810167 
L 62.450839 77.810167 
L 62.450839 81.133357 
" clip-path="url(#p026059a2ce)" style="fill: #08306b"/>
    <path d="M 66.087304 81.133357 
L 69.723769 81.133357 
L 69.723769 77.810167 
L 66.087304 77.810167 
L 66.087304 81.133357 
" clip-path="url(#p026059a2ce)" style="fill: #08306b"/>
    <path d="M 69.723769 81.133357 
L 73.360234 81.133357 
L 73.360234 77.810167 
L 69.723769 77.810167 
L 69.723769 81.133357 
" clip-path="url(#p026059a2ce)" style="fill: #3787c0"/>
    <path d="M 73.360234 81.133357 
L 76.996698 81.133357 
L 76.996698 77.810167 
L 73.360234 77.810167 
L 73.360234 81.133357 
" clip-path="url(#p026059a2ce)" style="fill: #f7fbff"/>
    <path d="M 76.996698 81.133357 
L 80.633163 81.133357 
L 80.633163 77.810167 
L 76.996698 77.810167 
L 76.996698 81.133357 
" clip-path="url(#p026059a2ce)" style="fill: #f7fbff"/>
    <path d="M 80.633163 81.133357 
L 84.269628 81.133357 
L 84.269628 77.810167 
L 80.633163 77.810167 
L 80.633163 81.133357 
" clip-path="url(#p026059a2ce)" style="fill: #f7fbff"/>
    <path d="M 84.269628 81.133357 
L 87.906093 81.133357 
L 87.906093 77.810167 
L 84.269628 77.810167 
L 84.269628 81.133357 
" clip-path="url(#p026059a2ce)" style="fill: #f7fbff"/>
    <path d="M 87.906093 81.133357 
L 91.542558 81.133357 
L 91.542558 77.810167 
L 87.906093 77.810167 
L 87.906093 81.133357 
" clip-path="url(#p026059a2ce)" style="fill: #f7fbff"/>
    <path d="M 91.542558 81.133357 
L 95.179022 81.133357 
L 95.179022 77.810167 
L 91.542558 77.810167 
L 91.542558 81.133357 
" clip-path="url(#p026059a2ce)" style="fill: #f7fbff"/>
    <path d="M 95.179022 81.133357 
L 98.815487 81.133357 
L 98.815487 77.810167 
L 95.179022 77.810167 
L 95.179022 81.133357 
" clip-path="url(#p026059a2ce)" style="fill: #f7fbff"/>
    <path d="M 98.815487 81.133357 
L 102.451952 81.133357 
L 102.451952 77.810167 
L 98.815487 77.810167 
L 98.815487 81.133357 
" clip-path="url(#p026059a2ce)" style="fill: #f7fbff"/>
    <path d="M 29.722656 77.810167 
L 33.359121 77.810167 
L 33.359121 74.486978 
L 29.722656 74.486978 
L 29.722656 77.810167 
" clip-path="url(#p026059a2ce)" style="fill: #f7fbff"/>
    <path d="M 33.359121 77.810167 
L 36.995586 77.810167 
L 36.995586 74.486978 
L 33.359121 74.486978 
L 33.359121 77.810167 
" clip-path="url(#p026059a2ce)" style="fill: #abd0e6"/>
    <path d="M 36.995586 77.810167 
L 40.632051 77.810167 
L 40.632051 74.486978 
L 36.995586 74.486978 
L 36.995586 77.810167 
" clip-path="url(#p026059a2ce)" style="fill: #abd0e6"/>
    <path d="M 40.632051 77.810167 
L 44.268515 77.810167 
L 44.268515 74.486978 
L 40.632051 74.486978 
L 40.632051 77.810167 
" clip-path="url(#p026059a2ce)" style="fill: #abd0e6"/>
    <path d="M 44.268515 77.810167 
L 47.90498 77.810167 
L 47.90498 74.486978 
L 44.268515 74.486978 
L 44.268515 77.810167 
" clip-path="url(#p026059a2ce)" style="fill: #abd0e6"/>
    <path d="M 47.90498 77.810167 
L 51.541445 77.810167 
L 51.541445 74.486978 
L 47.90498 74.486978 
L 47.90498 77.810167 
" clip-path="url(#p026059a2ce)" style="fill: #abd0e6"/>
    <path d="M 51.541445 77.810167 
L 55.17791 77.810167 
L 55.17791 74.486978 
L 51.541445 74.486978 
L 51.541445 77.810167 
" clip-path="url(#p026059a2ce)" style="fill: #08306b"/>
    <path d="M 55.17791 77.810167 
L 58.814374 77.810167 
L 58.814374 74.486978 
L 55.17791 74.486978 
L 55.17791 77.810167 
" clip-path="url(#p026059a2ce)" style="fill: #08306b"/>
    <path d="M 58.814374 77.810167 
L 62.450839 77.810167 
L 62.450839 74.486978 
L 58.814374 74.486978 
L 58.814374 77.810167 
" clip-path="url(#p026059a2ce)" style="fill: #08306b"/>
    <path d="M 62.450839 77.810167 
L 66.087304 77.810167 
L 66.087304 74.486978 
L 62.450839 74.486978 
L 62.450839 77.810167 
" clip-path="url(#p026059a2ce)" style="fill: #08306b"/>
    <path d="M 66.087304 77.810167 
L 69.723769 77.810167 
L 69.723769 74.486978 
L 66.087304 74.486978 
L 66.087304 77.810167 
" clip-path="url(#p026059a2ce)" style="fill: #08306b"/>
    <path d="M 69.723769 77.810167 
L 73.360234 77.810167 
L 73.360234 74.486978 
L 69.723769 74.486978 
L 69.723769 77.810167 
" clip-path="url(#p026059a2ce)" style="fill: #f7fbff"/>
    <path d="M 73.360234 77.810167 
L 76.996698 77.810167 
L 76.996698 74.486978 
L 73.360234 74.486978 
L 73.360234 77.810167 
" clip-path="url(#p026059a2ce)" style="fill: #f7fbff"/>
    <path d="M 76.996698 77.810167 
L 80.633163 77.810167 
L 80.633163 74.486978 
L 76.996698 74.486978 
L 76.996698 77.810167 
" clip-path="url(#p026059a2ce)" style="fill: #f7fbff"/>
    <path d="M 80.633163 77.810167 
L 84.269628 77.810167 
L 84.269628 74.486978 
L 80.633163 74.486978 
L 80.633163 77.810167 
" clip-path="url(#p026059a2ce)" style="fill: #f7fbff"/>
    <path d="M 84.269628 77.810167 
L 87.906093 77.810167 
L 87.906093 74.486978 
L 84.269628 74.486978 
L 84.269628 77.810167 
" clip-path="url(#p026059a2ce)" style="fill: #f7fbff"/>
    <path d="M 87.906093 77.810167 
L 91.542558 77.810167 
L 91.542558 74.486978 
L 87.906093 74.486978 
L 87.906093 77.810167 
" clip-path="url(#p026059a2ce)" style="fill: #f7fbff"/>
    <path d="M 91.542558 77.810167 
L 95.179022 77.810167 
L 95.179022 74.486978 
L 91.542558 74.486978 
L 91.542558 77.810167 
" clip-path="url(#p026059a2ce)" style="fill: #f7fbff"/>
    <path d="M 95.179022 77.810167 
L 98.815487 77.810167 
L 98.815487 74.486978 
L 95.179022 74.486978 
L 95.179022 77.810167 
" clip-path="url(#p026059a2ce)" style="fill: #f7fbff"/>
    <path d="M 98.815487 77.810167 
L 102.451952 77.810167 
L 102.451952 74.486978 
L 98.815487 74.486978 
L 98.815487 77.810167 
" clip-path="url(#p026059a2ce)" style="fill: #f7fbff"/>
    <path d="M 29.722656 74.486978 
L 33.359121 74.486978 
L 33.359121 71.163789 
L 29.722656 71.163789 
L 29.722656 74.486978 
" clip-path="url(#p026059a2ce)" style="fill: #f7fbff"/>
    <path d="M 33.359121 74.486978 
L 36.995586 74.486978 
L 36.995586 71.163789 
L 33.359121 71.163789 
L 33.359121 74.486978 
" clip-path="url(#p026059a2ce)" style="fill: #abd0e6"/>
    <path d="M 36.995586 74.486978 
L 40.632051 74.486978 
L 40.632051 71.163789 
L 36.995586 71.163789 
L 36.995586 74.486978 
" clip-path="url(#p026059a2ce)" style="fill: #abd0e6"/>
    <path d="M 40.632051 74.486978 
L 44.268515 74.486978 
L 44.268515 71.163789 
L 40.632051 71.163789 
L 40.632051 74.486978 
" clip-path="url(#p026059a2ce)" style="fill: #abd0e6"/>
    <path d="M 44.268515 74.486978 
L 47.90498 74.486978 
L 47.90498 71.163789 
L 44.268515 71.163789 
L 44.268515 74.486978 
" clip-path="url(#p026059a2ce)" style="fill: #abd0e6"/>
    <path d="M 47.90498 74.486978 
L 51.541445 74.486978 
L 51.541445 71.163789 
L 47.90498 71.163789 
L 47.90498 74.486978 
" clip-path="url(#p026059a2ce)" style="fill: #abd0e6"/>
    <path d="M 51.541445 74.486978 
L 55.17791 74.486978 
L 55.17791 71.163789 
L 51.541445 71.163789 
L 51.541445 74.486978 
" clip-path="url(#p026059a2ce)" style="fill: #08306b"/>
    <path d="M 55.17791 74.486978 
L 58.814374 74.486978 
L 58.814374 71.163789 
L 55.17791 71.163789 
L 55.17791 74.486978 
" clip-path="url(#p026059a2ce)" style="fill: #08306b"/>
    <path d="M 58.814374 74.486978 
L 62.450839 74.486978 
L 62.450839 71.163789 
L 58.814374 71.163789 
L 58.814374 74.486978 
" clip-path="url(#p026059a2ce)" style="fill: #08306b"/>
    <path d="M 62.450839 74.486978 
L 66.087304 74.486978 
L 66.087304 71.163789 
L 62.450839 71.163789 
L 62.450839 74.486978 
" clip-path="url(#p026059a2ce)" style="fill: #08306b"/>
    <path d="M 66.087304 74.486978 
L 69.723769 74.486978 
L 69.723769 71.163789 
L 66.087304 71.163789 
L 66.087304 74.486978 
" clip-path="url(#p026059a2ce)" style="fill: #f7fbff"/>
    <path d="M 69.723769 74.486978 
L 73.360234 74.486978 
L 73.360234 71.163789 
L 69.723769 71.163789 
L 69.723769 74.486978 
" clip-path="url(#p026059a2ce)" style="fill: #f7fbff"/>
    <path d="M 73.360234 74.486978 
L 76.996698 74.486978 
L 76.996698 71.163789 
L 73.360234 71.163789 
L 73.360234 74.486978 
" clip-path="url(#p026059a2ce)" style="fill: #f7fbff"/>
    <path d="M 76.996698 74.486978 
L 80.633163 74.486978 
L 80.633163 71.163789 
L 76.996698 71.163789 
L 76.996698 74.486978 
" clip-path="url(#p026059a2ce)" style="fill: #f7fbff"/>
    <path d="M 80.633163 74.486978 
L 84.269628 74.486978 
L 84.269628 71.163789 
L 80.633163 71.163789 
L 80.633163 74.486978 
" clip-path="url(#p026059a2ce)" style="fill: #f7fbff"/>
    <path d="M 84.269628 74.486978 
L 87.906093 74.486978 
L 87.906093 71.163789 
L 84.269628 71.163789 
L 84.269628 74.486978 
" clip-path="url(#p026059a2ce)" style="fill: #f7fbff"/>
    <path d="M 87.906093 74.486978 
L 91.542558 74.486978 
L 91.542558 71.163789 
L 87.906093 71.163789 
L 87.906093 74.486978 
" clip-path="url(#p026059a2ce)" style="fill: #f7fbff"/>
    <path d="M 91.542558 74.486978 
L 95.179022 74.486978 
L 95.179022 71.163789 
L 91.542558 71.163789 
L 91.542558 74.486978 
" clip-path="url(#p026059a2ce)" style="fill: #f7fbff"/>
    <path d="M 95.179022 74.486978 
L 98.815487 74.486978 
L 98.815487 71.163789 
L 95.179022 71.163789 
L 95.179022 74.486978 
" clip-path="url(#p026059a2ce)" style="fill: #f7fbff"/>
    <path d="M 98.815487 74.486978 
L 102.451952 74.486978 
L 102.451952 71.163789 
L 98.815487 71.163789 
L 98.815487 74.486978 
" clip-path="url(#p026059a2ce)" style="fill: #f7fbff"/>
    <path d="M 29.722656 71.163789 
L 33.359121 71.163789 
L 33.359121 67.840599 
L 29.722656 67.840599 
L 29.722656 71.163789 
" clip-path="url(#p026059a2ce)" style="fill: #f7fbff"/>
    <path d="M 33.359121 71.163789 
L 36.995586 71.163789 
L 36.995586 67.840599 
L 33.359121 67.840599 
L 33.359121 71.163789 
" clip-path="url(#p026059a2ce)" style="fill: #f7fbff"/>
    <path d="M 36.995586 71.163789 
L 40.632051 71.163789 
L 40.632051 67.840599 
L 36.995586 67.840599 
L 36.995586 71.163789 
" clip-path="url(#p026059a2ce)" style="fill: #f7fbff"/>
    <path d="M 40.632051 71.163789 
L 44.268515 71.163789 
L 44.268515 67.840599 
L 40.632051 67.840599 
L 40.632051 71.163789 
" clip-path="url(#p026059a2ce)" style="fill: #f7fbff"/>
    <path d="M 44.268515 71.163789 
L 47.90498 71.163789 
L 47.90498 67.840599 
L 44.268515 67.840599 
L 44.268515 71.163789 
" clip-path="url(#p026059a2ce)" style="fill: #abd0e6"/>
    <path d="M 47.90498 71.163789 
L 51.541445 71.163789 
L 51.541445 67.840599 
L 47.90498 67.840599 
L 47.90498 71.163789 
" clip-path="url(#p026059a2ce)" style="fill: #abd0e6"/>
    <path d="M 51.541445 71.163789 
L 55.17791 71.163789 
L 55.17791 67.840599 
L 51.541445 67.840599 
L 51.541445 71.163789 
" clip-path="url(#p026059a2ce)" style="fill: #08306b"/>
    <path d="M 55.17791 71.163789 
L 58.814374 71.163789 
L 58.814374 67.840599 
L 55.17791 67.840599 
L 55.17791 71.163789 
" clip-path="url(#p026059a2ce)" style="fill: #08306b"/>
    <path d="M 58.814374 71.163789 
L 62.450839 71.163789 
L 62.450839 67.840599 
L 58.814374 67.840599 
L 58.814374 71.163789 
" clip-path="url(#p026059a2ce)" style="fill: #08306b"/>
    <path d="M 62.450839 71.163789 
L 66.087304 71.163789 
L 66.087304 67.840599 
L 62.450839 67.840599 
L 62.450839 71.163789 
" clip-path="url(#p026059a2ce)" style="fill: #08306b"/>
    <path d="M 66.087304 71.163789 
L 69.723769 71.163789 
L 69.723769 67.840599 
L 66.087304 67.840599 
L 66.087304 71.163789 
" clip-path="url(#p026059a2ce)" style="fill: #08306b"/>
    <path d="M 69.723769 71.163789 
L 73.360234 71.163789 
L 73.360234 67.840599 
L 69.723769 67.840599 
L 69.723769 71.163789 
" clip-path="url(#p026059a2ce)" style="fill: #f7fbff"/>
    <path d="M 73.360234 71.163789 
L 76.996698 71.163789 
L 76.996698 67.840599 
L 73.360234 67.840599 
L 73.360234 71.163789 
" clip-path="url(#p026059a2ce)" style="fill: #f7fbff"/>
    <path d="M 76.996698 71.163789 
L 80.633163 71.163789 
L 80.633163 67.840599 
L 76.996698 67.840599 
L 76.996698 71.163789 
" clip-path="url(#p026059a2ce)" style="fill: #f7fbff"/>
    <path d="M 80.633163 71.163789 
L 84.269628 71.163789 
L 84.269628 67.840599 
L 80.633163 67.840599 
L 80.633163 71.163789 
" clip-path="url(#p026059a2ce)" style="fill: #f7fbff"/>
    <path d="M 84.269628 71.163789 
L 87.906093 71.163789 
L 87.906093 67.840599 
L 84.269628 67.840599 
L 84.269628 71.163789 
" clip-path="url(#p026059a2ce)" style="fill: #f7fbff"/>
    <path d="M 87.906093 71.163789 
L 91.542558 71.163789 
L 91.542558 67.840599 
L 87.906093 67.840599 
L 87.906093 71.163789 
" clip-path="url(#p026059a2ce)" style="fill: #f7fbff"/>
    <path d="M 91.542558 71.163789 
L 95.179022 71.163789 
L 95.179022 67.840599 
L 91.542558 67.840599 
L 91.542558 71.163789 
" clip-path="url(#p026059a2ce)" style="fill: #f7fbff"/>
    <path d="M 95.179022 71.163789 
L 98.815487 71.163789 
L 98.815487 67.840599 
L 95.179022 67.840599 
L 95.179022 71.163789 
" clip-path="url(#p026059a2ce)" style="fill: #f7fbff"/>
    <path d="M 98.815487 71.163789 
L 102.451952 71.163789 
L 102.451952 67.840599 
L 98.815487 67.840599 
L 98.815487 71.163789 
" clip-path="url(#p026059a2ce)" style="fill: #f7fbff"/>
    <path d="M 29.722656 67.840599 
L 33.359121 67.840599 
L 33.359121 64.51741 
L 29.722656 64.51741 
L 29.722656 67.840599 
" clip-path="url(#p026059a2ce)" style="fill: #f7fbff"/>
    <path d="M 33.359121 67.840599 
L 36.995586 67.840599 
L 36.995586 64.51741 
L 33.359121 64.51741 
L 33.359121 67.840599 
" clip-path="url(#p026059a2ce)" style="fill: #f7fbff"/>
    <path d="M 36.995586 67.840599 
L 40.632051 67.840599 
L 40.632051 64.51741 
L 36.995586 64.51741 
L 36.995586 67.840599 
" clip-path="url(#p026059a2ce)" style="fill: #f7fbff"/>
    <path d="M 40.632051 67.840599 
L 44.268515 67.840599 
L 44.268515 64.51741 
L 40.632051 64.51741 
L 40.632051 67.840599 
" clip-path="url(#p026059a2ce)" style="fill: #f7fbff"/>
    <path d="M 44.268515 67.840599 
L 47.90498 67.840599 
L 47.90498 64.51741 
L 44.268515 64.51741 
L 44.268515 67.840599 
" clip-path="url(#p026059a2ce)" style="fill: #abd0e6"/>
    <path d="M 47.90498 67.840599 
L 51.541445 67.840599 
L 51.541445 64.51741 
L 47.90498 64.51741 
L 47.90498 67.840599 
" clip-path="url(#p026059a2ce)" style="fill: #abd0e6"/>
    <path d="M 51.541445 67.840599 
L 55.17791 67.840599 
L 55.17791 64.51741 
L 51.541445 64.51741 
L 51.541445 67.840599 
" clip-path="url(#p026059a2ce)" style="fill: #08306b"/>
    <path d="M 55.17791 67.840599 
L 58.814374 67.840599 
L 58.814374 64.51741 
L 55.17791 64.51741 
L 55.17791 67.840599 
" clip-path="url(#p026059a2ce)" style="fill: #08306b"/>
    <path d="M 58.814374 67.840599 
L 62.450839 67.840599 
L 62.450839 64.51741 
L 58.814374 64.51741 
L 58.814374 67.840599 
" clip-path="url(#p026059a2ce)" style="fill: #08306b"/>
    <path d="M 62.450839 67.840599 
L 66.087304 67.840599 
L 66.087304 64.51741 
L 62.450839 64.51741 
L 62.450839 67.840599 
" clip-path="url(#p026059a2ce)" style="fill: #08306b"/>
    <path d="M 66.087304 67.840599 
L 69.723769 67.840599 
L 69.723769 64.51741 
L 66.087304 64.51741 
L 66.087304 67.840599 
" clip-path="url(#p026059a2ce)" style="fill: #f7fbff"/>
    <path d="M 69.723769 67.840599 
L 73.360234 67.840599 
L 73.360234 64.51741 
L 69.723769 64.51741 
L 69.723769 67.840599 
" clip-path="url(#p026059a2ce)" style="fill: #f7fbff"/>
    <path d="M 73.360234 67.840599 
L 76.996698 67.840599 
L 76.996698 64.51741 
L 73.360234 64.51741 
L 73.360234 67.840599 
" clip-path="url(#p026059a2ce)" style="fill: #f7fbff"/>
    <path d="M 76.996698 67.840599 
L 80.633163 67.840599 
L 80.633163 64.51741 
L 76.996698 64.51741 
L 76.996698 67.840599 
" clip-path="url(#p026059a2ce)" style="fill: #f7fbff"/>
    <path d="M 80.633163 67.840599 
L 84.269628 67.840599 
L 84.269628 64.51741 
L 80.633163 64.51741 
L 80.633163 67.840599 
" clip-path="url(#p026059a2ce)" style="fill: #f7fbff"/>
    <path d="M 84.269628 67.840599 
L 87.906093 67.840599 
L 87.906093 64.51741 
L 84.269628 64.51741 
L 84.269628 67.840599 
" clip-path="url(#p026059a2ce)" style="fill: #f7fbff"/>
    <path d="M 87.906093 67.840599 
L 91.542558 67.840599 
L 91.542558 64.51741 
L 87.906093 64.51741 
L 87.906093 67.840599 
" clip-path="url(#p026059a2ce)" style="fill: #f7fbff"/>
    <path d="M 91.542558 67.840599 
L 95.179022 67.840599 
L 95.179022 64.51741 
L 91.542558 64.51741 
L 91.542558 67.840599 
" clip-path="url(#p026059a2ce)" style="fill: #f7fbff"/>
    <path d="M 95.179022 67.840599 
L 98.815487 67.840599 
L 98.815487 64.51741 
L 95.179022 64.51741 
L 95.179022 67.840599 
" clip-path="url(#p026059a2ce)" style="fill: #f7fbff"/>
    <path d="M 98.815487 67.840599 
L 102.451952 67.840599 
L 102.451952 64.51741 
L 98.815487 64.51741 
L 98.815487 67.840599 
" clip-path="url(#p026059a2ce)" style="fill: #f7fbff"/>
    <path d="M 29.722656 64.51741 
L 33.359121 64.51741 
L 33.359121 61.19422 
L 29.722656 61.19422 
L 29.722656 64.51741 
" clip-path="url(#p026059a2ce)" style="fill: #f7fbff"/>
    <path d="M 33.359121 64.51741 
L 36.995586 64.51741 
L 36.995586 61.19422 
L 33.359121 61.19422 
L 33.359121 64.51741 
" clip-path="url(#p026059a2ce)" style="fill: #f7fbff"/>
    <path d="M 36.995586 64.51741 
L 40.632051 64.51741 
L 40.632051 61.19422 
L 36.995586 61.19422 
L 36.995586 64.51741 
" clip-path="url(#p026059a2ce)" style="fill: #f7fbff"/>
    <path d="M 40.632051 64.51741 
L 44.268515 64.51741 
L 44.268515 61.19422 
L 40.632051 61.19422 
L 40.632051 64.51741 
" clip-path="url(#p026059a2ce)" style="fill: #f7fbff"/>
    <path d="M 44.268515 64.51741 
L 47.90498 64.51741 
L 47.90498 61.19422 
L 44.268515 61.19422 
L 44.268515 64.51741 
" clip-path="url(#p026059a2ce)" style="fill: #f7fbff"/>
    <path d="M 47.90498 64.51741 
L 51.541445 64.51741 
L 51.541445 61.19422 
L 47.90498 61.19422 
L 47.90498 64.51741 
" clip-path="url(#p026059a2ce)" style="fill: #abd0e6"/>
    <path d="M 51.541445 64.51741 
L 55.17791 64.51741 
L 55.17791 61.19422 
L 51.541445 61.19422 
L 51.541445 64.51741 
" clip-path="url(#p026059a2ce)" style="fill: #08306b"/>
    <path d="M 55.17791 64.51741 
L 58.814374 64.51741 
L 58.814374 61.19422 
L 55.17791 61.19422 
L 55.17791 64.51741 
" clip-path="url(#p026059a2ce)" style="fill: #08306b"/>
    <path d="M 58.814374 64.51741 
L 62.450839 64.51741 
L 62.450839 61.19422 
L 58.814374 61.19422 
L 58.814374 64.51741 
" clip-path="url(#p026059a2ce)" style="fill: #08306b"/>
    <path d="M 62.450839 64.51741 
L 66.087304 64.51741 
L 66.087304 61.19422 
L 62.450839 61.19422 
L 62.450839 64.51741 
" clip-path="url(#p026059a2ce)" style="fill: #f7fbff"/>
    <path d="M 66.087304 64.51741 
L 69.723769 64.51741 
L 69.723769 61.19422 
L 66.087304 61.19422 
L 66.087304 64.51741 
" clip-path="url(#p026059a2ce)" style="fill: #f7fbff"/>
    <path d="M 69.723769 64.51741 
L 73.360234 64.51741 
L 73.360234 61.19422 
L 69.723769 61.19422 
L 69.723769 64.51741 
" clip-path="url(#p026059a2ce)" style="fill: #f7fbff"/>
    <path d="M 73.360234 64.51741 
L 76.996698 64.51741 
L 76.996698 61.19422 
L 73.360234 61.19422 
L 73.360234 64.51741 
" clip-path="url(#p026059a2ce)" style="fill: #f7fbff"/>
    <path d="M 76.996698 64.51741 
L 80.633163 64.51741 
L 80.633163 61.19422 
L 76.996698 61.19422 
L 76.996698 64.51741 
" clip-path="url(#p026059a2ce)" style="fill: #f7fbff"/>
    <path d="M 80.633163 64.51741 
L 84.269628 64.51741 
L 84.269628 61.19422 
L 80.633163 61.19422 
L 80.633163 64.51741 
" clip-path="url(#p026059a2ce)" style="fill: #f7fbff"/>
    <path d="M 84.269628 64.51741 
L 87.906093 64.51741 
L 87.906093 61.19422 
L 84.269628 61.19422 
L 84.269628 64.51741 
" clip-path="url(#p026059a2ce)" style="fill: #f7fbff"/>
    <path d="M 87.906093 64.51741 
L 91.542558 64.51741 
L 91.542558 61.19422 
L 87.906093 61.19422 
L 87.906093 64.51741 
" clip-path="url(#p026059a2ce)" style="fill: #f7fbff"/>
    <path d="M 91.542558 64.51741 
L 95.179022 64.51741 
L 95.179022 61.19422 
L 91.542558 61.19422 
L 91.542558 64.51741 
" clip-path="url(#p026059a2ce)" style="fill: #f7fbff"/>
    <path d="M 95.179022 64.51741 
L 98.815487 64.51741 
L 98.815487 61.19422 
L 95.179022 61.19422 
L 95.179022 64.51741 
" clip-path="url(#p026059a2ce)" style="fill: #f7fbff"/>
    <path d="M 98.815487 64.51741 
L 102.451952 64.51741 
L 102.451952 61.19422 
L 98.815487 61.19422 
L 98.815487 64.51741 
" clip-path="url(#p026059a2ce)" style="fill: #f7fbff"/>
    <path d="M 29.722656 61.19422 
L 33.359121 61.19422 
L 33.359121 57.871031 
L 29.722656 57.871031 
L 29.722656 61.19422 
" clip-path="url(#p026059a2ce)" style="fill: #f7fbff"/>
    <path d="M 33.359121 61.19422 
L 36.995586 61.19422 
L 36.995586 57.871031 
L 33.359121 57.871031 
L 33.359121 61.19422 
" clip-path="url(#p026059a2ce)" style="fill: #f7fbff"/>
    <path d="M 36.995586 61.19422 
L 40.632051 61.19422 
L 40.632051 57.871031 
L 36.995586 57.871031 
L 36.995586 61.19422 
" clip-path="url(#p026059a2ce)" style="fill: #f7fbff"/>
    <path d="M 40.632051 61.19422 
L 44.268515 61.19422 
L 44.268515 57.871031 
L 40.632051 57.871031 
L 40.632051 61.19422 
" clip-path="url(#p026059a2ce)" style="fill: #f7fbff"/>
    <path d="M 44.268515 61.19422 
L 47.90498 61.19422 
L 47.90498 57.871031 
L 44.268515 57.871031 
L 44.268515 61.19422 
" clip-path="url(#p026059a2ce)" style="fill: #f7fbff"/>
    <path d="M 47.90498 61.19422 
L 51.541445 61.19422 
L 51.541445 57.871031 
L 47.90498 57.871031 
L 47.90498 61.19422 
" clip-path="url(#p026059a2ce)" style="fill: #abd0e6"/>
    <path d="M 51.541445 61.19422 
L 55.17791 61.19422 
L 55.17791 57.871031 
L 51.541445 57.871031 
L 51.541445 61.19422 
" clip-path="url(#p026059a2ce)" style="fill: #08306b"/>
    <path d="M 55.17791 61.19422 
L 58.814374 61.19422 
L 58.814374 57.871031 
L 55.17791 57.871031 
L 55.17791 61.19422 
" clip-path="url(#p026059a2ce)" style="fill: #08306b"/>
    <path d="M 58.814374 61.19422 
L 62.450839 61.19422 
L 62.450839 57.871031 
L 58.814374 57.871031 
L 58.814374 61.19422 
" clip-path="url(#p026059a2ce)" style="fill: #f7fbff"/>
    <path d="M 62.450839 61.19422 
L 66.087304 61.19422 
L 66.087304 57.871031 
L 62.450839 57.871031 
L 62.450839 61.19422 
" clip-path="url(#p026059a2ce)" style="fill: #f7fbff"/>
    <path d="M 66.087304 61.19422 
L 69.723769 61.19422 
L 69.723769 57.871031 
L 66.087304 57.871031 
L 66.087304 61.19422 
" clip-path="url(#p026059a2ce)" style="fill: #f7fbff"/>
    <path d="M 69.723769 61.19422 
L 73.360234 61.19422 
L 73.360234 57.871031 
L 69.723769 57.871031 
L 69.723769 61.19422 
" clip-path="url(#p026059a2ce)" style="fill: #f7fbff"/>
    <path d="M 73.360234 61.19422 
L 76.996698 61.19422 
L 76.996698 57.871031 
L 73.360234 57.871031 
L 73.360234 61.19422 
" clip-path="url(#p026059a2ce)" style="fill: #f7fbff"/>
    <path d="M 76.996698 61.19422 
L 80.633163 61.19422 
L 80.633163 57.871031 
L 76.996698 57.871031 
L 76.996698 61.19422 
" clip-path="url(#p026059a2ce)" style="fill: #f7fbff"/>
    <path d="M 80.633163 61.19422 
L 84.269628 61.19422 
L 84.269628 57.871031 
L 80.633163 57.871031 
L 80.633163 61.19422 
" clip-path="url(#p026059a2ce)" style="fill: #f7fbff"/>
    <path d="M 84.269628 61.19422 
L 87.906093 61.19422 
L 87.906093 57.871031 
L 84.269628 57.871031 
L 84.269628 61.19422 
" clip-path="url(#p026059a2ce)" style="fill: #f7fbff"/>
    <path d="M 87.906093 61.19422 
L 91.542558 61.19422 
L 91.542558 57.871031 
L 87.906093 57.871031 
L 87.906093 61.19422 
" clip-path="url(#p026059a2ce)" style="fill: #f7fbff"/>
    <path d="M 91.542558 61.19422 
L 95.179022 61.19422 
L 95.179022 57.871031 
L 91.542558 57.871031 
L 91.542558 61.19422 
" clip-path="url(#p026059a2ce)" style="fill: #f7fbff"/>
    <path d="M 95.179022 61.19422 
L 98.815487 61.19422 
L 98.815487 57.871031 
L 95.179022 57.871031 
L 95.179022 61.19422 
" clip-path="url(#p026059a2ce)" style="fill: #f7fbff"/>
    <path d="M 98.815487 61.19422 
L 102.451952 61.19422 
L 102.451952 57.871031 
L 98.815487 57.871031 
L 98.815487 61.19422 
" clip-path="url(#p026059a2ce)" style="fill: #f7fbff"/>
    <path d="M 29.722656 57.871031 
L 33.359121 57.871031 
L 33.359121 54.547841 
L 29.722656 54.547841 
L 29.722656 57.871031 
" clip-path="url(#p026059a2ce)" style="fill: #f7fbff"/>
    <path d="M 33.359121 57.871031 
L 36.995586 57.871031 
L 36.995586 54.547841 
L 33.359121 54.547841 
L 33.359121 57.871031 
" clip-path="url(#p026059a2ce)" style="fill: #f7fbff"/>
    <path d="M 36.995586 57.871031 
L 40.632051 57.871031 
L 40.632051 54.547841 
L 36.995586 54.547841 
L 36.995586 57.871031 
" clip-path="url(#p026059a2ce)" style="fill: #f7fbff"/>
    <path d="M 40.632051 57.871031 
L 44.268515 57.871031 
L 44.268515 54.547841 
L 40.632051 54.547841 
L 40.632051 57.871031 
" clip-path="url(#p026059a2ce)" style="fill: #f7fbff"/>
    <path d="M 44.268515 57.871031 
L 47.90498 57.871031 
L 47.90498 54.547841 
L 44.268515 54.547841 
L 44.268515 57.871031 
" clip-path="url(#p026059a2ce)" style="fill: #f7fbff"/>
    <path d="M 47.90498 57.871031 
L 51.541445 57.871031 
L 51.541445 54.547841 
L 47.90498 54.547841 
L 47.90498 57.871031 
" clip-path="url(#p026059a2ce)" style="fill: #abd0e6"/>
    <path d="M 51.541445 57.871031 
L 55.17791 57.871031 
L 55.17791 54.547841 
L 51.541445 54.547841 
L 51.541445 57.871031 
" clip-path="url(#p026059a2ce)" style="fill: #08306b"/>
    <path d="M 55.17791 57.871031 
L 58.814374 57.871031 
L 58.814374 54.547841 
L 55.17791 54.547841 
L 55.17791 57.871031 
" clip-path="url(#p026059a2ce)" style="fill: #08306b"/>
    <path d="M 58.814374 57.871031 
L 62.450839 57.871031 
L 62.450839 54.547841 
L 58.814374 54.547841 
L 58.814374 57.871031 
" clip-path="url(#p026059a2ce)" style="fill: #f7fbff"/>
    <path d="M 62.450839 57.871031 
L 66.087304 57.871031 
L 66.087304 54.547841 
L 62.450839 54.547841 
L 62.450839 57.871031 
" clip-path="url(#p026059a2ce)" style="fill: #f7fbff"/>
    <path d="M 66.087304 57.871031 
L 69.723769 57.871031 
L 69.723769 54.547841 
L 66.087304 54.547841 
L 66.087304 57.871031 
" clip-path="url(#p026059a2ce)" style="fill: #f7fbff"/>
    <path d="M 69.723769 57.871031 
L 73.360234 57.871031 
L 73.360234 54.547841 
L 69.723769 54.547841 
L 69.723769 57.871031 
" clip-path="url(#p026059a2ce)" style="fill: #f7fbff"/>
    <path d="M 73.360234 57.871031 
L 76.996698 57.871031 
L 76.996698 54.547841 
L 73.360234 54.547841 
L 73.360234 57.871031 
" clip-path="url(#p026059a2ce)" style="fill: #f7fbff"/>
    <path d="M 76.996698 57.871031 
L 80.633163 57.871031 
L 80.633163 54.547841 
L 76.996698 54.547841 
L 76.996698 57.871031 
" clip-path="url(#p026059a2ce)" style="fill: #f7fbff"/>
    <path d="M 80.633163 57.871031 
L 84.269628 57.871031 
L 84.269628 54.547841 
L 80.633163 54.547841 
L 80.633163 57.871031 
" clip-path="url(#p026059a2ce)" style="fill: #f7fbff"/>
    <path d="M 84.269628 57.871031 
L 87.906093 57.871031 
L 87.906093 54.547841 
L 84.269628 54.547841 
L 84.269628 57.871031 
" clip-path="url(#p026059a2ce)" style="fill: #f7fbff"/>
    <path d="M 87.906093 57.871031 
L 91.542558 57.871031 
L 91.542558 54.547841 
L 87.906093 54.547841 
L 87.906093 57.871031 
" clip-path="url(#p026059a2ce)" style="fill: #f7fbff"/>
    <path d="M 91.542558 57.871031 
L 95.179022 57.871031 
L 95.179022 54.547841 
L 91.542558 54.547841 
L 91.542558 57.871031 
" clip-path="url(#p026059a2ce)" style="fill: #f7fbff"/>
    <path d="M 95.179022 57.871031 
L 98.815487 57.871031 
L 98.815487 54.547841 
L 95.179022 54.547841 
L 95.179022 57.871031 
" clip-path="url(#p026059a2ce)" style="fill: #f7fbff"/>
    <path d="M 98.815487 57.871031 
L 102.451952 57.871031 
L 102.451952 54.547841 
L 98.815487 54.547841 
L 98.815487 57.871031 
" clip-path="url(#p026059a2ce)" style="fill: #f7fbff"/>
    <path d="M 29.722656 54.547841 
L 33.359121 54.547841 
L 33.359121 51.224652 
L 29.722656 51.224652 
L 29.722656 54.547841 
" clip-path="url(#p026059a2ce)" style="fill: #f7fbff"/>
    <path d="M 33.359121 54.547841 
L 36.995586 54.547841 
L 36.995586 51.224652 
L 33.359121 51.224652 
L 33.359121 54.547841 
" clip-path="url(#p026059a2ce)" style="fill: #f7fbff"/>
    <path d="M 36.995586 54.547841 
L 40.632051 54.547841 
L 40.632051 51.224652 
L 36.995586 51.224652 
L 36.995586 54.547841 
" clip-path="url(#p026059a2ce)" style="fill: #f7fbff"/>
    <path d="M 40.632051 54.547841 
L 44.268515 54.547841 
L 44.268515 51.224652 
L 40.632051 51.224652 
L 40.632051 54.547841 
" clip-path="url(#p026059a2ce)" style="fill: #f7fbff"/>
    <path d="M 44.268515 54.547841 
L 47.90498 54.547841 
L 47.90498 51.224652 
L 44.268515 51.224652 
L 44.268515 54.547841 
" clip-path="url(#p026059a2ce)" style="fill: #f7fbff"/>
    <path d="M 47.90498 54.547841 
L 51.541445 54.547841 
L 51.541445 51.224652 
L 47.90498 51.224652 
L 47.90498 54.547841 
" clip-path="url(#p026059a2ce)" style="fill: #abd0e6"/>
    <path d="M 51.541445 54.547841 
L 55.17791 54.547841 
L 55.17791 51.224652 
L 51.541445 51.224652 
L 51.541445 54.547841 
" clip-path="url(#p026059a2ce)" style="fill: #08306b"/>
    <path d="M 55.17791 54.547841 
L 58.814374 54.547841 
L 58.814374 51.224652 
L 55.17791 51.224652 
L 55.17791 54.547841 
" clip-path="url(#p026059a2ce)" style="fill: #f7fbff"/>
    <path d="M 58.814374 54.547841 
L 62.450839 54.547841 
L 62.450839 51.224652 
L 58.814374 51.224652 
L 58.814374 54.547841 
" clip-path="url(#p026059a2ce)" style="fill: #f7fbff"/>
    <path d="M 62.450839 54.547841 
L 66.087304 54.547841 
L 66.087304 51.224652 
L 62.450839 51.224652 
L 62.450839 54.547841 
" clip-path="url(#p026059a2ce)" style="fill: #f7fbff"/>
    <path d="M 66.087304 54.547841 
L 69.723769 54.547841 
L 69.723769 51.224652 
L 66.087304 51.224652 
L 66.087304 54.547841 
" clip-path="url(#p026059a2ce)" style="fill: #f7fbff"/>
    <path d="M 69.723769 54.547841 
L 73.360234 54.547841 
L 73.360234 51.224652 
L 69.723769 51.224652 
L 69.723769 54.547841 
" clip-path="url(#p026059a2ce)" style="fill: #f7fbff"/>
    <path d="M 73.360234 54.547841 
L 76.996698 54.547841 
L 76.996698 51.224652 
L 73.360234 51.224652 
L 73.360234 54.547841 
" clip-path="url(#p026059a2ce)" style="fill: #f7fbff"/>
    <path d="M 76.996698 54.547841 
L 80.633163 54.547841 
L 80.633163 51.224652 
L 76.996698 51.224652 
L 76.996698 54.547841 
" clip-path="url(#p026059a2ce)" style="fill: #f7fbff"/>
    <path d="M 80.633163 54.547841 
L 84.269628 54.547841 
L 84.269628 51.224652 
L 80.633163 51.224652 
L 80.633163 54.547841 
" clip-path="url(#p026059a2ce)" style="fill: #f7fbff"/>
    <path d="M 84.269628 54.547841 
L 87.906093 54.547841 
L 87.906093 51.224652 
L 84.269628 51.224652 
L 84.269628 54.547841 
" clip-path="url(#p026059a2ce)" style="fill: #f7fbff"/>
    <path d="M 87.906093 54.547841 
L 91.542558 54.547841 
L 91.542558 51.224652 
L 87.906093 51.224652 
L 87.906093 54.547841 
" clip-path="url(#p026059a2ce)" style="fill: #f7fbff"/>
    <path d="M 91.542558 54.547841 
L 95.179022 54.547841 
L 95.179022 51.224652 
L 91.542558 51.224652 
L 91.542558 54.547841 
" clip-path="url(#p026059a2ce)" style="fill: #f7fbff"/>
    <path d="M 95.179022 54.547841 
L 98.815487 54.547841 
L 98.815487 51.224652 
L 95.179022 51.224652 
L 95.179022 54.547841 
" clip-path="url(#p026059a2ce)" style="fill: #f7fbff"/>
    <path d="M 98.815487 54.547841 
L 102.451952 54.547841 
L 102.451952 51.224652 
L 98.815487 51.224652 
L 98.815487 54.547841 
" clip-path="url(#p026059a2ce)" style="fill: #f7fbff"/>
    <path d="M 29.722656 51.224652 
L 33.359121 51.224652 
L 33.359121 47.901463 
L 29.722656 47.901463 
L 29.722656 51.224652 
" clip-path="url(#p026059a2ce)" style="fill: #f7fbff"/>
    <path d="M 33.359121 51.224652 
L 36.995586 51.224652 
L 36.995586 47.901463 
L 33.359121 47.901463 
L 33.359121 51.224652 
" clip-path="url(#p026059a2ce)" style="fill: #f7fbff"/>
    <path d="M 36.995586 51.224652 
L 40.632051 51.224652 
L 40.632051 47.901463 
L 36.995586 47.901463 
L 36.995586 51.224652 
" clip-path="url(#p026059a2ce)" style="fill: #f7fbff"/>
    <path d="M 40.632051 51.224652 
L 44.268515 51.224652 
L 44.268515 47.901463 
L 40.632051 47.901463 
L 40.632051 51.224652 
" clip-path="url(#p026059a2ce)" style="fill: #f7fbff"/>
    <path d="M 44.268515 51.224652 
L 47.90498 51.224652 
L 47.90498 47.901463 
L 44.268515 47.901463 
L 44.268515 51.224652 
" clip-path="url(#p026059a2ce)" style="fill: #f7fbff"/>
    <path d="M 47.90498 51.224652 
L 51.541445 51.224652 
L 51.541445 47.901463 
L 47.90498 47.901463 
L 47.90498 51.224652 
" clip-path="url(#p026059a2ce)" style="fill: #f7fbff"/>
    <path d="M 51.541445 51.224652 
L 55.17791 51.224652 
L 55.17791 47.901463 
L 51.541445 47.901463 
L 51.541445 51.224652 
" clip-path="url(#p026059a2ce)" style="fill: #08306b"/>
    <path d="M 55.17791 51.224652 
L 58.814374 51.224652 
L 58.814374 47.901463 
L 55.17791 47.901463 
L 55.17791 51.224652 
" clip-path="url(#p026059a2ce)" style="fill: #f7fbff"/>
    <path d="M 58.814374 51.224652 
L 62.450839 51.224652 
L 62.450839 47.901463 
L 58.814374 47.901463 
L 58.814374 51.224652 
" clip-path="url(#p026059a2ce)" style="fill: #f7fbff"/>
    <path d="M 62.450839 51.224652 
L 66.087304 51.224652 
L 66.087304 47.901463 
L 62.450839 47.901463 
L 62.450839 51.224652 
" clip-path="url(#p026059a2ce)" style="fill: #f7fbff"/>
    <path d="M 66.087304 51.224652 
L 69.723769 51.224652 
L 69.723769 47.901463 
L 66.087304 47.901463 
L 66.087304 51.224652 
" clip-path="url(#p026059a2ce)" style="fill: #f7fbff"/>
    <path d="M 69.723769 51.224652 
L 73.360234 51.224652 
L 73.360234 47.901463 
L 69.723769 47.901463 
L 69.723769 51.224652 
" clip-path="url(#p026059a2ce)" style="fill: #f7fbff"/>
    <path d="M 73.360234 51.224652 
L 76.996698 51.224652 
L 76.996698 47.901463 
L 73.360234 47.901463 
L 73.360234 51.224652 
" clip-path="url(#p026059a2ce)" style="fill: #f7fbff"/>
    <path d="M 76.996698 51.224652 
L 80.633163 51.224652 
L 80.633163 47.901463 
L 76.996698 47.901463 
L 76.996698 51.224652 
" clip-path="url(#p026059a2ce)" style="fill: #f7fbff"/>
    <path d="M 80.633163 51.224652 
L 84.269628 51.224652 
L 84.269628 47.901463 
L 80.633163 47.901463 
L 80.633163 51.224652 
" clip-path="url(#p026059a2ce)" style="fill: #f7fbff"/>
    <path d="M 84.269628 51.224652 
L 87.906093 51.224652 
L 87.906093 47.901463 
L 84.269628 47.901463 
L 84.269628 51.224652 
" clip-path="url(#p026059a2ce)" style="fill: #f7fbff"/>
    <path d="M 87.906093 51.224652 
L 91.542558 51.224652 
L 91.542558 47.901463 
L 87.906093 47.901463 
L 87.906093 51.224652 
" clip-path="url(#p026059a2ce)" style="fill: #f7fbff"/>
    <path d="M 91.542558 51.224652 
L 95.179022 51.224652 
L 95.179022 47.901463 
L 91.542558 47.901463 
L 91.542558 51.224652 
" clip-path="url(#p026059a2ce)" style="fill: #f7fbff"/>
    <path d="M 95.179022 51.224652 
L 98.815487 51.224652 
L 98.815487 47.901463 
L 95.179022 47.901463 
L 95.179022 51.224652 
" clip-path="url(#p026059a2ce)" style="fill: #f7fbff"/>
    <path d="M 98.815487 51.224652 
L 102.451952 51.224652 
L 102.451952 47.901463 
L 98.815487 47.901463 
L 98.815487 51.224652 
" clip-path="url(#p026059a2ce)" style="fill: #f7fbff"/>
    <path d="M 29.722656 47.901463 
L 33.359121 47.901463 
L 33.359121 44.578273 
L 29.722656 44.578273 
L 29.722656 47.901463 
" clip-path="url(#p026059a2ce)" style="fill: #f7fbff"/>
    <path d="M 33.359121 47.901463 
L 36.995586 47.901463 
L 36.995586 44.578273 
L 33.359121 44.578273 
L 33.359121 47.901463 
" clip-path="url(#p026059a2ce)" style="fill: #f7fbff"/>
    <path d="M 36.995586 47.901463 
L 40.632051 47.901463 
L 40.632051 44.578273 
L 36.995586 44.578273 
L 36.995586 47.901463 
" clip-path="url(#p026059a2ce)" style="fill: #f7fbff"/>
    <path d="M 40.632051 47.901463 
L 44.268515 47.901463 
L 44.268515 44.578273 
L 40.632051 44.578273 
L 40.632051 47.901463 
" clip-path="url(#p026059a2ce)" style="fill: #f7fbff"/>
    <path d="M 44.268515 47.901463 
L 47.90498 47.901463 
L 47.90498 44.578273 
L 44.268515 44.578273 
L 44.268515 47.901463 
" clip-path="url(#p026059a2ce)" style="fill: #f7fbff"/>
    <path d="M 47.90498 47.901463 
L 51.541445 47.901463 
L 51.541445 44.578273 
L 47.90498 44.578273 
L 47.90498 47.901463 
" clip-path="url(#p026059a2ce)" style="fill: #f7fbff"/>
    <path d="M 51.541445 47.901463 
L 55.17791 47.901463 
L 55.17791 44.578273 
L 51.541445 44.578273 
L 51.541445 47.901463 
" clip-path="url(#p026059a2ce)" style="fill: #08306b"/>
    <path d="M 55.17791 47.901463 
L 58.814374 47.901463 
L 58.814374 44.578273 
L 55.17791 44.578273 
L 55.17791 47.901463 
" clip-path="url(#p026059a2ce)" style="fill: #f7fbff"/>
    <path d="M 58.814374 47.901463 
L 62.450839 47.901463 
L 62.450839 44.578273 
L 58.814374 44.578273 
L 58.814374 47.901463 
" clip-path="url(#p026059a2ce)" style="fill: #f7fbff"/>
    <path d="M 62.450839 47.901463 
L 66.087304 47.901463 
L 66.087304 44.578273 
L 62.450839 44.578273 
L 62.450839 47.901463 
" clip-path="url(#p026059a2ce)" style="fill: #f7fbff"/>
    <path d="M 66.087304 47.901463 
L 69.723769 47.901463 
L 69.723769 44.578273 
L 66.087304 44.578273 
L 66.087304 47.901463 
" clip-path="url(#p026059a2ce)" style="fill: #f7fbff"/>
    <path d="M 69.723769 47.901463 
L 73.360234 47.901463 
L 73.360234 44.578273 
L 69.723769 44.578273 
L 69.723769 47.901463 
" clip-path="url(#p026059a2ce)" style="fill: #f7fbff"/>
    <path d="M 73.360234 47.901463 
L 76.996698 47.901463 
L 76.996698 44.578273 
L 73.360234 44.578273 
L 73.360234 47.901463 
" clip-path="url(#p026059a2ce)" style="fill: #f7fbff"/>
    <path d="M 76.996698 47.901463 
L 80.633163 47.901463 
L 80.633163 44.578273 
L 76.996698 44.578273 
L 76.996698 47.901463 
" clip-path="url(#p026059a2ce)" style="fill: #f7fbff"/>
    <path d="M 80.633163 47.901463 
L 84.269628 47.901463 
L 84.269628 44.578273 
L 80.633163 44.578273 
L 80.633163 47.901463 
" clip-path="url(#p026059a2ce)" style="fill: #f7fbff"/>
    <path d="M 84.269628 47.901463 
L 87.906093 47.901463 
L 87.906093 44.578273 
L 84.269628 44.578273 
L 84.269628 47.901463 
" clip-path="url(#p026059a2ce)" style="fill: #f7fbff"/>
    <path d="M 87.906093 47.901463 
L 91.542558 47.901463 
L 91.542558 44.578273 
L 87.906093 44.578273 
L 87.906093 47.901463 
" clip-path="url(#p026059a2ce)" style="fill: #f7fbff"/>
    <path d="M 91.542558 47.901463 
L 95.179022 47.901463 
L 95.179022 44.578273 
L 91.542558 44.578273 
L 91.542558 47.901463 
" clip-path="url(#p026059a2ce)" style="fill: #f7fbff"/>
    <path d="M 95.179022 47.901463 
L 98.815487 47.901463 
L 98.815487 44.578273 
L 95.179022 44.578273 
L 95.179022 47.901463 
" clip-path="url(#p026059a2ce)" style="fill: #f7fbff"/>
    <path d="M 98.815487 47.901463 
L 102.451952 47.901463 
L 102.451952 44.578273 
L 98.815487 44.578273 
L 98.815487 47.901463 
" clip-path="url(#p026059a2ce)" style="fill: #f7fbff"/>
    <path d="M 29.722656 44.578273 
L 33.359121 44.578273 
L 33.359121 41.255084 
L 29.722656 41.255084 
L 29.722656 44.578273 
" clip-path="url(#p026059a2ce)" style="fill: #f7fbff"/>
    <path d="M 33.359121 44.578273 
L 36.995586 44.578273 
L 36.995586 41.255084 
L 33.359121 41.255084 
L 33.359121 44.578273 
" clip-path="url(#p026059a2ce)" style="fill: #f7fbff"/>
    <path d="M 36.995586 44.578273 
L 40.632051 44.578273 
L 40.632051 41.255084 
L 36.995586 41.255084 
L 36.995586 44.578273 
" clip-path="url(#p026059a2ce)" style="fill: #f7fbff"/>
    <path d="M 40.632051 44.578273 
L 44.268515 44.578273 
L 44.268515 41.255084 
L 40.632051 41.255084 
L 40.632051 44.578273 
" clip-path="url(#p026059a2ce)" style="fill: #f7fbff"/>
    <path d="M 44.268515 44.578273 
L 47.90498 44.578273 
L 47.90498 41.255084 
L 44.268515 41.255084 
L 44.268515 44.578273 
" clip-path="url(#p026059a2ce)" style="fill: #f7fbff"/>
    <path d="M 47.90498 44.578273 
L 51.541445 44.578273 
L 51.541445 41.255084 
L 47.90498 41.255084 
L 47.90498 44.578273 
" clip-path="url(#p026059a2ce)" style="fill: #f7fbff"/>
    <path d="M 51.541445 44.578273 
L 55.17791 44.578273 
L 55.17791 41.255084 
L 51.541445 41.255084 
L 51.541445 44.578273 
" clip-path="url(#p026059a2ce)" style="fill: #f7fbff"/>
    <path d="M 55.17791 44.578273 
L 58.814374 44.578273 
L 58.814374 41.255084 
L 55.17791 41.255084 
L 55.17791 44.578273 
" clip-path="url(#p026059a2ce)" style="fill: #f7fbff"/>
    <path d="M 58.814374 44.578273 
L 62.450839 44.578273 
L 62.450839 41.255084 
L 58.814374 41.255084 
L 58.814374 44.578273 
" clip-path="url(#p026059a2ce)" style="fill: #f7fbff"/>
    <path d="M 62.450839 44.578273 
L 66.087304 44.578273 
L 66.087304 41.255084 
L 62.450839 41.255084 
L 62.450839 44.578273 
" clip-path="url(#p026059a2ce)" style="fill: #f7fbff"/>
    <path d="M 66.087304 44.578273 
L 69.723769 44.578273 
L 69.723769 41.255084 
L 66.087304 41.255084 
L 66.087304 44.578273 
" clip-path="url(#p026059a2ce)" style="fill: #f7fbff"/>
    <path d="M 69.723769 44.578273 
L 73.360234 44.578273 
L 73.360234 41.255084 
L 69.723769 41.255084 
L 69.723769 44.578273 
" clip-path="url(#p026059a2ce)" style="fill: #f7fbff"/>
    <path d="M 73.360234 44.578273 
L 76.996698 44.578273 
L 76.996698 41.255084 
L 73.360234 41.255084 
L 73.360234 44.578273 
" clip-path="url(#p026059a2ce)" style="fill: #f7fbff"/>
    <path d="M 76.996698 44.578273 
L 80.633163 44.578273 
L 80.633163 41.255084 
L 76.996698 41.255084 
L 76.996698 44.578273 
" clip-path="url(#p026059a2ce)" style="fill: #f7fbff"/>
    <path d="M 80.633163 44.578273 
L 84.269628 44.578273 
L 84.269628 41.255084 
L 80.633163 41.255084 
L 80.633163 44.578273 
" clip-path="url(#p026059a2ce)" style="fill: #f7fbff"/>
    <path d="M 84.269628 44.578273 
L 87.906093 44.578273 
L 87.906093 41.255084 
L 84.269628 41.255084 
L 84.269628 44.578273 
" clip-path="url(#p026059a2ce)" style="fill: #f7fbff"/>
    <path d="M 87.906093 44.578273 
L 91.542558 44.578273 
L 91.542558 41.255084 
L 87.906093 41.255084 
L 87.906093 44.578273 
" clip-path="url(#p026059a2ce)" style="fill: #f7fbff"/>
    <path d="M 91.542558 44.578273 
L 95.179022 44.578273 
L 95.179022 41.255084 
L 91.542558 41.255084 
L 91.542558 44.578273 
" clip-path="url(#p026059a2ce)" style="fill: #f7fbff"/>
    <path d="M 95.179022 44.578273 
L 98.815487 44.578273 
L 98.815487 41.255084 
L 95.179022 41.255084 
L 95.179022 44.578273 
" clip-path="url(#p026059a2ce)" style="fill: #f7fbff"/>
    <path d="M 98.815487 44.578273 
L 102.451952 44.578273 
L 102.451952 41.255084 
L 98.815487 41.255084 
L 98.815487 44.578273 
" clip-path="url(#p026059a2ce)" style="fill: #f7fbff"/>
    <path d="M 29.722656 41.255084 
L 33.359121 41.255084 
L 33.359121 37.931894 
L 29.722656 37.931894 
L 29.722656 41.255084 
" clip-path="url(#p026059a2ce)" style="fill: #f7fbff"/>
    <path d="M 33.359121 41.255084 
L 36.995586 41.255084 
L 36.995586 37.931894 
L 33.359121 37.931894 
L 33.359121 41.255084 
" clip-path="url(#p026059a2ce)" style="fill: #f7fbff"/>
    <path d="M 36.995586 41.255084 
L 40.632051 41.255084 
L 40.632051 37.931894 
L 36.995586 37.931894 
L 36.995586 41.255084 
" clip-path="url(#p026059a2ce)" style="fill: #f7fbff"/>
    <path d="M 40.632051 41.255084 
L 44.268515 41.255084 
L 44.268515 37.931894 
L 40.632051 37.931894 
L 40.632051 41.255084 
" clip-path="url(#p026059a2ce)" style="fill: #f7fbff"/>
    <path d="M 44.268515 41.255084 
L 47.90498 41.255084 
L 47.90498 37.931894 
L 44.268515 37.931894 
L 44.268515 41.255084 
" clip-path="url(#p026059a2ce)" style="fill: #f7fbff"/>
    <path d="M 47.90498 41.255084 
L 51.541445 41.255084 
L 51.541445 37.931894 
L 47.90498 37.931894 
L 47.90498 41.255084 
" clip-path="url(#p026059a2ce)" style="fill: #f7fbff"/>
    <path d="M 51.541445 41.255084 
L 55.17791 41.255084 
L 55.17791 37.931894 
L 51.541445 37.931894 
L 51.541445 41.255084 
" clip-path="url(#p026059a2ce)" style="fill: #f7fbff"/>
    <path d="M 55.17791 41.255084 
L 58.814374 41.255084 
L 58.814374 37.931894 
L 55.17791 37.931894 
L 55.17791 41.255084 
" clip-path="url(#p026059a2ce)" style="fill: #f7fbff"/>
    <path d="M 58.814374 41.255084 
L 62.450839 41.255084 
L 62.450839 37.931894 
L 58.814374 37.931894 
L 58.814374 41.255084 
" clip-path="url(#p026059a2ce)" style="fill: #f7fbff"/>
    <path d="M 62.450839 41.255084 
L 66.087304 41.255084 
L 66.087304 37.931894 
L 62.450839 37.931894 
L 62.450839 41.255084 
" clip-path="url(#p026059a2ce)" style="fill: #f7fbff"/>
    <path d="M 66.087304 41.255084 
L 69.723769 41.255084 
L 69.723769 37.931894 
L 66.087304 37.931894 
L 66.087304 41.255084 
" clip-path="url(#p026059a2ce)" style="fill: #f7fbff"/>
    <path d="M 69.723769 41.255084 
L 73.360234 41.255084 
L 73.360234 37.931894 
L 69.723769 37.931894 
L 69.723769 41.255084 
" clip-path="url(#p026059a2ce)" style="fill: #f7fbff"/>
    <path d="M 73.360234 41.255084 
L 76.996698 41.255084 
L 76.996698 37.931894 
L 73.360234 37.931894 
L 73.360234 41.255084 
" clip-path="url(#p026059a2ce)" style="fill: #f7fbff"/>
    <path d="M 76.996698 41.255084 
L 80.633163 41.255084 
L 80.633163 37.931894 
L 76.996698 37.931894 
L 76.996698 41.255084 
" clip-path="url(#p026059a2ce)" style="fill: #f7fbff"/>
    <path d="M 80.633163 41.255084 
L 84.269628 41.255084 
L 84.269628 37.931894 
L 80.633163 37.931894 
L 80.633163 41.255084 
" clip-path="url(#p026059a2ce)" style="fill: #f7fbff"/>
    <path d="M 84.269628 41.255084 
L 87.906093 41.255084 
L 87.906093 37.931894 
L 84.269628 37.931894 
L 84.269628 41.255084 
" clip-path="url(#p026059a2ce)" style="fill: #f7fbff"/>
    <path d="M 87.906093 41.255084 
L 91.542558 41.255084 
L 91.542558 37.931894 
L 87.906093 37.931894 
L 87.906093 41.255084 
" clip-path="url(#p026059a2ce)" style="fill: #f7fbff"/>
    <path d="M 91.542558 41.255084 
L 95.179022 41.255084 
L 95.179022 37.931894 
L 91.542558 37.931894 
L 91.542558 41.255084 
" clip-path="url(#p026059a2ce)" style="fill: #f7fbff"/>
    <path d="M 95.179022 41.255084 
L 98.815487 41.255084 
L 98.815487 37.931894 
L 95.179022 37.931894 
L 95.179022 41.255084 
" clip-path="url(#p026059a2ce)" style="fill: #f7fbff"/>
    <path d="M 98.815487 41.255084 
L 102.451952 41.255084 
L 102.451952 37.931894 
L 98.815487 37.931894 
L 98.815487 41.255084 
" clip-path="url(#p026059a2ce)" style="fill: #f7fbff"/>
    <path d="M 29.722656 37.931894 
L 33.359121 37.931894 
L 33.359121 34.608705 
L 29.722656 34.608705 
L 29.722656 37.931894 
" clip-path="url(#p026059a2ce)" style="fill: #f7fbff"/>
    <path d="M 33.359121 37.931894 
L 36.995586 37.931894 
L 36.995586 34.608705 
L 33.359121 34.608705 
L 33.359121 37.931894 
" clip-path="url(#p026059a2ce)" style="fill: #f7fbff"/>
    <path d="M 36.995586 37.931894 
L 40.632051 37.931894 
L 40.632051 34.608705 
L 36.995586 34.608705 
L 36.995586 37.931894 
" clip-path="url(#p026059a2ce)" style="fill: #f7fbff"/>
    <path d="M 40.632051 37.931894 
L 44.268515 37.931894 
L 44.268515 34.608705 
L 40.632051 34.608705 
L 40.632051 37.931894 
" clip-path="url(#p026059a2ce)" style="fill: #f7fbff"/>
    <path d="M 44.268515 37.931894 
L 47.90498 37.931894 
L 47.90498 34.608705 
L 44.268515 34.608705 
L 44.268515 37.931894 
" clip-path="url(#p026059a2ce)" style="fill: #f7fbff"/>
    <path d="M 47.90498 37.931894 
L 51.541445 37.931894 
L 51.541445 34.608705 
L 47.90498 34.608705 
L 47.90498 37.931894 
" clip-path="url(#p026059a2ce)" style="fill: #f7fbff"/>
    <path d="M 51.541445 37.931894 
L 55.17791 37.931894 
L 55.17791 34.608705 
L 51.541445 34.608705 
L 51.541445 37.931894 
" clip-path="url(#p026059a2ce)" style="fill: #f7fbff"/>
    <path d="M 55.17791 37.931894 
L 58.814374 37.931894 
L 58.814374 34.608705 
L 55.17791 34.608705 
L 55.17791 37.931894 
" clip-path="url(#p026059a2ce)" style="fill: #f7fbff"/>
    <path d="M 58.814374 37.931894 
L 62.450839 37.931894 
L 62.450839 34.608705 
L 58.814374 34.608705 
L 58.814374 37.931894 
" clip-path="url(#p026059a2ce)" style="fill: #f7fbff"/>
    <path d="M 62.450839 37.931894 
L 66.087304 37.931894 
L 66.087304 34.608705 
L 62.450839 34.608705 
L 62.450839 37.931894 
" clip-path="url(#p026059a2ce)" style="fill: #f7fbff"/>
    <path d="M 66.087304 37.931894 
L 69.723769 37.931894 
L 69.723769 34.608705 
L 66.087304 34.608705 
L 66.087304 37.931894 
" clip-path="url(#p026059a2ce)" style="fill: #f7fbff"/>
    <path d="M 69.723769 37.931894 
L 73.360234 37.931894 
L 73.360234 34.608705 
L 69.723769 34.608705 
L 69.723769 37.931894 
" clip-path="url(#p026059a2ce)" style="fill: #f7fbff"/>
    <path d="M 73.360234 37.931894 
L 76.996698 37.931894 
L 76.996698 34.608705 
L 73.360234 34.608705 
L 73.360234 37.931894 
" clip-path="url(#p026059a2ce)" style="fill: #f7fbff"/>
    <path d="M 76.996698 37.931894 
L 80.633163 37.931894 
L 80.633163 34.608705 
L 76.996698 34.608705 
L 76.996698 37.931894 
" clip-path="url(#p026059a2ce)" style="fill: #f7fbff"/>
    <path d="M 80.633163 37.931894 
L 84.269628 37.931894 
L 84.269628 34.608705 
L 80.633163 34.608705 
L 80.633163 37.931894 
" clip-path="url(#p026059a2ce)" style="fill: #f7fbff"/>
    <path d="M 84.269628 37.931894 
L 87.906093 37.931894 
L 87.906093 34.608705 
L 84.269628 34.608705 
L 84.269628 37.931894 
" clip-path="url(#p026059a2ce)" style="fill: #f7fbff"/>
    <path d="M 87.906093 37.931894 
L 91.542558 37.931894 
L 91.542558 34.608705 
L 87.906093 34.608705 
L 87.906093 37.931894 
" clip-path="url(#p026059a2ce)" style="fill: #f7fbff"/>
    <path d="M 91.542558 37.931894 
L 95.179022 37.931894 
L 95.179022 34.608705 
L 91.542558 34.608705 
L 91.542558 37.931894 
" clip-path="url(#p026059a2ce)" style="fill: #f7fbff"/>
    <path d="M 95.179022 37.931894 
L 98.815487 37.931894 
L 98.815487 34.608705 
L 95.179022 34.608705 
L 95.179022 37.931894 
" clip-path="url(#p026059a2ce)" style="fill: #f7fbff"/>
    <path d="M 98.815487 37.931894 
L 102.451952 37.931894 
L 102.451952 34.608705 
L 98.815487 34.608705 
L 98.815487 37.931894 
" clip-path="url(#p026059a2ce)" style="fill: #f7fbff"/>
    <path d="M 29.722656 34.608705 
L 33.359121 34.608705 
L 33.359121 31.285515 
L 29.722656 31.285515 
L 29.722656 34.608705 
" clip-path="url(#p026059a2ce)" style="fill: #f7fbff"/>
    <path d="M 33.359121 34.608705 
L 36.995586 34.608705 
L 36.995586 31.285515 
L 33.359121 31.285515 
L 33.359121 34.608705 
" clip-path="url(#p026059a2ce)" style="fill: #f7fbff"/>
    <path d="M 36.995586 34.608705 
L 40.632051 34.608705 
L 40.632051 31.285515 
L 36.995586 31.285515 
L 36.995586 34.608705 
" clip-path="url(#p026059a2ce)" style="fill: #f7fbff"/>
    <path d="M 40.632051 34.608705 
L 44.268515 34.608705 
L 44.268515 31.285515 
L 40.632051 31.285515 
L 40.632051 34.608705 
" clip-path="url(#p026059a2ce)" style="fill: #f7fbff"/>
    <path d="M 44.268515 34.608705 
L 47.90498 34.608705 
L 47.90498 31.285515 
L 44.268515 31.285515 
L 44.268515 34.608705 
" clip-path="url(#p026059a2ce)" style="fill: #f7fbff"/>
    <path d="M 47.90498 34.608705 
L 51.541445 34.608705 
L 51.541445 31.285515 
L 47.90498 31.285515 
L 47.90498 34.608705 
" clip-path="url(#p026059a2ce)" style="fill: #f7fbff"/>
    <path d="M 51.541445 34.608705 
L 55.17791 34.608705 
L 55.17791 31.285515 
L 51.541445 31.285515 
L 51.541445 34.608705 
" clip-path="url(#p026059a2ce)" style="fill: #f7fbff"/>
    <path d="M 55.17791 34.608705 
L 58.814374 34.608705 
L 58.814374 31.285515 
L 55.17791 31.285515 
L 55.17791 34.608705 
" clip-path="url(#p026059a2ce)" style="fill: #f7fbff"/>
    <path d="M 58.814374 34.608705 
L 62.450839 34.608705 
L 62.450839 31.285515 
L 58.814374 31.285515 
L 58.814374 34.608705 
" clip-path="url(#p026059a2ce)" style="fill: #f7fbff"/>
    <path d="M 62.450839 34.608705 
L 66.087304 34.608705 
L 66.087304 31.285515 
L 62.450839 31.285515 
L 62.450839 34.608705 
" clip-path="url(#p026059a2ce)" style="fill: #f7fbff"/>
    <path d="M 66.087304 34.608705 
L 69.723769 34.608705 
L 69.723769 31.285515 
L 66.087304 31.285515 
L 66.087304 34.608705 
" clip-path="url(#p026059a2ce)" style="fill: #f7fbff"/>
    <path d="M 69.723769 34.608705 
L 73.360234 34.608705 
L 73.360234 31.285515 
L 69.723769 31.285515 
L 69.723769 34.608705 
" clip-path="url(#p026059a2ce)" style="fill: #f7fbff"/>
    <path d="M 73.360234 34.608705 
L 76.996698 34.608705 
L 76.996698 31.285515 
L 73.360234 31.285515 
L 73.360234 34.608705 
" clip-path="url(#p026059a2ce)" style="fill: #f7fbff"/>
    <path d="M 76.996698 34.608705 
L 80.633163 34.608705 
L 80.633163 31.285515 
L 76.996698 31.285515 
L 76.996698 34.608705 
" clip-path="url(#p026059a2ce)" style="fill: #f7fbff"/>
    <path d="M 80.633163 34.608705 
L 84.269628 34.608705 
L 84.269628 31.285515 
L 80.633163 31.285515 
L 80.633163 34.608705 
" clip-path="url(#p026059a2ce)" style="fill: #f7fbff"/>
    <path d="M 84.269628 34.608705 
L 87.906093 34.608705 
L 87.906093 31.285515 
L 84.269628 31.285515 
L 84.269628 34.608705 
" clip-path="url(#p026059a2ce)" style="fill: #f7fbff"/>
    <path d="M 87.906093 34.608705 
L 91.542558 34.608705 
L 91.542558 31.285515 
L 87.906093 31.285515 
L 87.906093 34.608705 
" clip-path="url(#p026059a2ce)" style="fill: #f7fbff"/>
    <path d="M 91.542558 34.608705 
L 95.179022 34.608705 
L 95.179022 31.285515 
L 91.542558 31.285515 
L 91.542558 34.608705 
" clip-path="url(#p026059a2ce)" style="fill: #f7fbff"/>
    <path d="M 95.179022 34.608705 
L 98.815487 34.608705 
L 98.815487 31.285515 
L 95.179022 31.285515 
L 95.179022 34.608705 
" clip-path="url(#p026059a2ce)" style="fill: #f7fbff"/>
    <path d="M 98.815487 34.608705 
L 102.451952 34.608705 
L 102.451952 31.285515 
L 98.815487 31.285515 
L 98.815487 34.608705 
" clip-path="url(#p026059a2ce)" style="fill: #f7fbff"/>
   </g>
   <g id="matplotlib.axis_1">
    <g id="xtick_1">
     <g id="line2d_1">
      <defs>
       <path id="m49f497eae8" d="M 0 0 
L 0 3.5 
" style="stroke: #000000; stroke-width: 0.25"/>
      </defs>
      <g>
       <use xlink:href="#m49f497eae8" x="29.769278" y="97.749304" style="stroke: #000000; stroke-width: 0.25"/>
      </g>
     </g>
     <g id="text_1">
      <!-- 0 -->
      <g transform="translate(28.379043 108.32821) scale(0.05 -0.05)">
       <defs>
        <path id="ArialMT-30" d="M 266 2259 
Q 266 3072 433 3567 
Q 600 4063 929 4331 
Q 1259 4600 1759 4600 
Q 2128 4600 2406 4451 
Q 2684 4303 2865 4023 
Q 3047 3744 3150 3342 
Q 3253 2941 3253 2259 
Q 3253 1453 3087 958 
Q 2922 463 2592 192 
Q 2263 -78 1759 -78 
Q 1097 -78 719 397 
Q 266 969 266 2259 
z
M 844 2259 
Q 844 1131 1108 757 
Q 1372 384 1759 384 
Q 2147 384 2411 759 
Q 2675 1134 2675 2259 
Q 2675 3391 2411 3762 
Q 2147 4134 1753 4134 
Q 1366 4134 1134 3806 
Q 844 3388 844 2259 
z
" transform="scale(0.015625)"/>
       </defs>
       <use xlink:href="#ArialMT-30"/>
      </g>
     </g>
    </g>
    <g id="xtick_2">
     <g id="line2d_2">
      <g>
       <use xlink:href="#m49f497eae8" x="65.201499" y="97.749304" style="stroke: #000000; stroke-width: 0.25"/>
      </g>
     </g>
     <g id="text_2">
      <!-- 1 -->
      <g transform="translate(63.811264 108.32821) scale(0.05 -0.05)">
       <defs>
        <path id="ArialMT-31" d="M 2384 0 
L 1822 0 
L 1822 3584 
Q 1619 3391 1289 3197 
Q 959 3003 697 2906 
L 697 3450 
Q 1169 3672 1522 3987 
Q 1875 4303 2022 4600 
L 2384 4600 
L 2384 0 
z
" transform="scale(0.015625)"/>
       </defs>
       <use xlink:href="#ArialMT-31"/>
      </g>
     </g>
    </g>
    <g id="xtick_3">
     <g id="line2d_3">
      <g>
       <use xlink:href="#m49f497eae8" x="100.633719" y="97.749304" style="stroke: #000000; stroke-width: 0.25"/>
      </g>
     </g>
     <g id="text_3">
      <!-- 2 -->
      <g transform="translate(99.243485 108.32821) scale(0.05 -0.05)">
       <defs>
        <path id="ArialMT-32" d="M 3222 541 
L 3222 0 
L 194 0 
Q 188 203 259 391 
Q 375 700 629 1000 
Q 884 1300 1366 1694 
Q 2113 2306 2375 2664 
Q 2638 3022 2638 3341 
Q 2638 3675 2398 3904 
Q 2159 4134 1775 4134 
Q 1369 4134 1125 3890 
Q 881 3647 878 3216 
L 300 3275 
Q 359 3922 746 4261 
Q 1134 4600 1788 4600 
Q 2447 4600 2831 4234 
Q 3216 3869 3216 3328 
Q 3216 3053 3103 2787 
Q 2991 2522 2730 2228 
Q 2469 1934 1863 1422 
Q 1356 997 1212 845 
Q 1069 694 975 541 
L 3222 541 
z
" transform="scale(0.015625)"/>
       </defs>
       <use xlink:href="#ArialMT-32"/>
      </g>
     </g>
    </g>
    <g id="text_4">
     <!-- $A$ -->
     <g transform="translate(64.362304 116.900866) scale(0.05 -0.05)">
      <defs>
       <path id="DejaVuSans-Oblique-41" d="M 2356 4666 
L 3072 4666 
L 3938 0 
L 3278 0 
L 3084 1197 
L 984 1197 
L 325 0 
L -341 0 
L 2356 4666 
z
M 2584 4044 
L 1275 1722 
L 2988 1722 
L 2584 4044 
z
" transform="scale(0.015625)"/>
      </defs>
      <use xlink:href="#DejaVuSans-Oblique-41" transform="translate(0 0.09375)"/>
     </g>
    </g>
   </g>
   <g id="matplotlib.axis_2">
    <g id="ytick_1">
     <g id="line2d_4">
      <defs>
       <path id="mce06a7c291" d="M 0 0 
L -3.5 0 
" style="stroke: #000000; stroke-width: 0.25"/>
      </defs>
      <g>
       <use xlink:href="#mce06a7c291" x="29.722656" y="85.564276" style="stroke: #000000; stroke-width: 0.25"/>
      </g>
     </g>
     <g id="text_5">
      <!-- 0.1 -->
      <g transform="translate(15.772656 87.353729) scale(0.05 -0.05)">
       <defs>
        <path id="ArialMT-2e" d="M 581 0 
L 581 641 
L 1222 641 
L 1222 0 
L 581 0 
z
" transform="scale(0.015625)"/>
       </defs>
       <use xlink:href="#ArialMT-30"/>
       <use xlink:href="#ArialMT-2e" transform="translate(55.615234 0)"/>
       <use xlink:href="#ArialMT-31" transform="translate(83.398438 0)"/>
      </g>
     </g>
    </g>
    <g id="ytick_2">
     <g id="line2d_5">
      <g>
       <use xlink:href="#mce06a7c291" x="29.722656" y="64.51741" style="stroke: #000000; stroke-width: 0.25"/>
      </g>
     </g>
     <g id="text_6">
      <!-- 0.2 -->
      <g transform="translate(15.772656 66.306863) scale(0.05 -0.05)">
       <use xlink:href="#ArialMT-30"/>
       <use xlink:href="#ArialMT-2e" transform="translate(55.615234 0)"/>
       <use xlink:href="#ArialMT-32" transform="translate(83.398438 0)"/>
      </g>
     </g>
    </g>
    <g id="ytick_3">
     <g id="line2d_6">
      <g>
       <use xlink:href="#mce06a7c291" x="29.722656" y="43.470543" style="stroke: #000000; stroke-width: 0.25"/>
      </g>
     </g>
     <g id="text_7">
      <!-- 0.3 -->
      <g transform="translate(15.772656 45.259996) scale(0.05 -0.05)">
       <defs>
        <path id="ArialMT-33" d="M 269 1209 
L 831 1284 
Q 928 806 1161 595 
Q 1394 384 1728 384 
Q 2125 384 2398 659 
Q 2672 934 2672 1341 
Q 2672 1728 2419 1979 
Q 2166 2231 1775 2231 
Q 1616 2231 1378 2169 
L 1441 2663 
Q 1497 2656 1531 2656 
Q 1891 2656 2178 2843 
Q 2466 3031 2466 3422 
Q 2466 3731 2256 3934 
Q 2047 4138 1716 4138 
Q 1388 4138 1169 3931 
Q 950 3725 888 3313 
L 325 3413 
Q 428 3978 793 4289 
Q 1159 4600 1703 4600 
Q 2078 4600 2393 4439 
Q 2709 4278 2876 4000 
Q 3044 3722 3044 3409 
Q 3044 3113 2884 2869 
Q 2725 2625 2413 2481 
Q 2819 2388 3044 2092 
Q 3269 1797 3269 1353 
Q 3269 753 2831 336 
Q 2394 -81 1725 -81 
Q 1122 -81 723 278 
Q 325 638 269 1209 
z
" transform="scale(0.015625)"/>
       </defs>
       <use xlink:href="#ArialMT-30"/>
       <use xlink:href="#ArialMT-2e" transform="translate(55.615234 0)"/>
       <use xlink:href="#ArialMT-33" transform="translate(83.398438 0)"/>
      </g>
     </g>
    </g>
    <g id="text_8">
     <!-- $F$ -->
     <g transform="translate(10.778906 65.96741) rotate(-90) scale(0.05 -0.05)">
      <defs>
       <path id="DejaVuSans-Oblique-46" d="M 1081 4666 
L 3756 4666 
L 3653 4134 
L 1606 4134 
L 1338 2759 
L 3188 2759 
L 3084 2228 
L 1234 2228 
L 800 0 
L 172 0 
L 1081 4666 
z
" transform="scale(0.015625)"/>
      </defs>
      <use xlink:href="#DejaVuSans-Oblique-46" transform="translate(0 0.09375)"/>
     </g>
    </g>
   </g>
   <g id="patch_3">
    <path d="M 29.722656 97.749304 
L 29.722656 31.285515 
" style="fill: none; stroke: #000000; stroke-width: 0.25; stroke-linejoin: miter; stroke-linecap: square"/>
   </g>
   <g id="patch_4">
    <path d="M 102.451952 97.749304 
L 102.451952 31.285515 
" style="fill: none; stroke: #000000; stroke-width: 0.25; stroke-linejoin: miter; stroke-linecap: square"/>
   </g>
   <g id="patch_5">
    <path d="M 29.722656 97.749304 
L 102.451952 97.749304 
" style="fill: none; stroke: #000000; stroke-width: 0.25; stroke-linejoin: miter; stroke-linecap: square"/>
   </g>
   <g id="patch_6">
    <path d="M 29.722656 31.285515 
L 102.451952 31.285515 
" style="fill: none; stroke: #000000; stroke-width: 0.25; stroke-linejoin: miter; stroke-linecap: square"/>
   </g>
   <g id="legend_1">
    <g id="patch_7">
     <path d="M 22.44746 14.325 
L 28.44746 14.325 
L 28.44746 9.2 
L 22.44746 9.2 
z
" style="fill: #08306b; stroke: #000000; stroke-width: 0.1; stroke-linejoin: miter"/>
    </g>
    <g id="text_9">
     <!-- Wet and dewet -->
     <g transform="translate(32.44746 13.45) scale(0.05 -0.05)">
      <defs>
       <path id="ArialMT-57" d="M 1294 0 
L 78 4581 
L 700 4581 
L 1397 1578 
Q 1509 1106 1591 641 
Q 1766 1375 1797 1488 
L 2669 4581 
L 3400 4581 
L 4056 2263 
Q 4303 1400 4413 641 
Q 4500 1075 4641 1638 
L 5359 4581 
L 5969 4581 
L 4713 0 
L 4128 0 
L 3163 3491 
Q 3041 3928 3019 4028 
Q 2947 3713 2884 3491 
L 1913 0 
L 1294 0 
z
" transform="scale(0.015625)"/>
       <path id="ArialMT-65" d="M 2694 1069 
L 3275 997 
Q 3138 488 2766 206 
Q 2394 -75 1816 -75 
Q 1088 -75 661 373 
Q 234 822 234 1631 
Q 234 2469 665 2931 
Q 1097 3394 1784 3394 
Q 2450 3394 2872 2941 
Q 3294 2488 3294 1666 
Q 3294 1616 3291 1516 
L 816 1516 
Q 847 969 1125 678 
Q 1403 388 1819 388 
Q 2128 388 2347 550 
Q 2566 713 2694 1069 
z
M 847 1978 
L 2700 1978 
Q 2663 2397 2488 2606 
Q 2219 2931 1791 2931 
Q 1403 2931 1139 2672 
Q 875 2413 847 1978 
z
" transform="scale(0.015625)"/>
       <path id="ArialMT-74" d="M 1650 503 
L 1731 6 
Q 1494 -44 1306 -44 
Q 1000 -44 831 53 
Q 663 150 594 308 
Q 525 466 525 972 
L 525 2881 
L 113 2881 
L 113 3319 
L 525 3319 
L 525 4141 
L 1084 4478 
L 1084 3319 
L 1650 3319 
L 1650 2881 
L 1084 2881 
L 1084 941 
Q 1084 700 1114 631 
Q 1144 563 1211 522 
Q 1278 481 1403 481 
Q 1497 481 1650 503 
z
" transform="scale(0.015625)"/>
       <path id="ArialMT-20" transform="scale(0.015625)"/>
       <path id="ArialMT-61" d="M 2588 409 
Q 2275 144 1986 34 
Q 1697 -75 1366 -75 
Q 819 -75 525 192 
Q 231 459 231 875 
Q 231 1119 342 1320 
Q 453 1522 633 1644 
Q 813 1766 1038 1828 
Q 1203 1872 1538 1913 
Q 2219 1994 2541 2106 
Q 2544 2222 2544 2253 
Q 2544 2597 2384 2738 
Q 2169 2928 1744 2928 
Q 1347 2928 1158 2789 
Q 969 2650 878 2297 
L 328 2372 
Q 403 2725 575 2942 
Q 747 3159 1072 3276 
Q 1397 3394 1825 3394 
Q 2250 3394 2515 3294 
Q 2781 3194 2906 3042 
Q 3031 2891 3081 2659 
Q 3109 2516 3109 2141 
L 3109 1391 
Q 3109 606 3145 398 
Q 3181 191 3288 0 
L 2700 0 
Q 2613 175 2588 409 
z
M 2541 1666 
Q 2234 1541 1622 1453 
Q 1275 1403 1131 1340 
Q 988 1278 909 1158 
Q 831 1038 831 891 
Q 831 666 1001 516 
Q 1172 366 1500 366 
Q 1825 366 2078 508 
Q 2331 650 2450 897 
Q 2541 1088 2541 1459 
L 2541 1666 
z
" transform="scale(0.015625)"/>
       <path id="ArialMT-6e" d="M 422 0 
L 422 3319 
L 928 3319 
L 928 2847 
Q 1294 3394 1984 3394 
Q 2284 3394 2536 3286 
Q 2788 3178 2913 3003 
Q 3038 2828 3088 2588 
Q 3119 2431 3119 2041 
L 3119 0 
L 2556 0 
L 2556 2019 
Q 2556 2363 2490 2533 
Q 2425 2703 2258 2804 
Q 2091 2906 1866 2906 
Q 1506 2906 1245 2678 
Q 984 2450 984 1813 
L 984 0 
L 422 0 
z
" transform="scale(0.015625)"/>
       <path id="ArialMT-64" d="M 2575 0 
L 2575 419 
Q 2259 -75 1647 -75 
Q 1250 -75 917 144 
Q 584 363 401 755 
Q 219 1147 219 1656 
Q 219 2153 384 2558 
Q 550 2963 881 3178 
Q 1213 3394 1622 3394 
Q 1922 3394 2156 3267 
Q 2391 3141 2538 2938 
L 2538 4581 
L 3097 4581 
L 3097 0 
L 2575 0 
z
M 797 1656 
Q 797 1019 1065 703 
Q 1334 388 1700 388 
Q 2069 388 2326 689 
Q 2584 991 2584 1609 
Q 2584 2291 2321 2609 
Q 2059 2928 1675 2928 
Q 1300 2928 1048 2622 
Q 797 2316 797 1656 
z
" transform="scale(0.015625)"/>
       <path id="ArialMT-77" d="M 1034 0 
L 19 3319 
L 600 3319 
L 1128 1403 
L 1325 691 
Q 1338 744 1497 1375 
L 2025 3319 
L 2603 3319 
L 3100 1394 
L 3266 759 
L 3456 1400 
L 4025 3319 
L 4572 3319 
L 3534 0 
L 2950 0 
L 2422 1988 
L 2294 2553 
L 1622 0 
L 1034 0 
z
" transform="scale(0.015625)"/>
      </defs>
      <use xlink:href="#ArialMT-57"/>
      <use xlink:href="#ArialMT-65" transform="translate(92.634766 0)"/>
      <use xlink:href="#ArialMT-74" transform="translate(148.25 0)"/>
      <use xlink:href="#ArialMT-20" transform="translate(176.033203 0)"/>
      <use xlink:href="#ArialMT-61" transform="translate(203.816406 0)"/>
      <use xlink:href="#ArialMT-6e" transform="translate(259.431641 0)"/>
      <use xlink:href="#ArialMT-64" transform="translate(315.046875 0)"/>
      <use xlink:href="#ArialMT-20" transform="translate(370.662109 0)"/>
      <use xlink:href="#ArialMT-64" transform="translate(398.445312 0)"/>
      <use xlink:href="#ArialMT-65" transform="translate(454.060547 0)"/>
      <use xlink:href="#ArialMT-77" transform="translate(509.675781 0)"/>
      <use xlink:href="#ArialMT-65" transform="translate(581.892578 0)"/>
      <use xlink:href="#ArialMT-74" transform="translate(637.507812 0)"/>
     </g>
    </g>
    <g id="patch_8">
     <path d="M 22.44746 22.06875 
L 28.44746 22.06875 
L 28.44746 16.94375 
L 22.44746 16.94375 
z
" style="fill: #3787c0; stroke: #000000; stroke-width: 0.1; stroke-linejoin: miter"/>
    </g>
    <g id="text_10">
     <!-- Dewet only -->
     <g transform="translate(32.44746 21.19375) scale(0.05 -0.05)">
      <defs>
       <path id="ArialMT-44" d="M 494 0 
L 494 4581 
L 2072 4581 
Q 2606 4581 2888 4516 
Q 3281 4425 3559 4188 
Q 3922 3881 4101 3404 
Q 4281 2928 4281 2316 
Q 4281 1794 4159 1391 
Q 4038 988 3847 723 
Q 3656 459 3429 307 
Q 3203 156 2883 78 
Q 2563 0 2147 0 
L 494 0 
z
M 1100 541 
L 2078 541 
Q 2531 541 2789 625 
Q 3047 709 3200 863 
Q 3416 1078 3536 1442 
Q 3656 1806 3656 2325 
Q 3656 3044 3420 3430 
Q 3184 3816 2847 3947 
Q 2603 4041 2063 4041 
L 1100 4041 
L 1100 541 
z
" transform="scale(0.015625)"/>
       <path id="ArialMT-6f" d="M 213 1659 
Q 213 2581 725 3025 
Q 1153 3394 1769 3394 
Q 2453 3394 2887 2945 
Q 3322 2497 3322 1706 
Q 3322 1066 3130 698 
Q 2938 331 2570 128 
Q 2203 -75 1769 -75 
Q 1072 -75 642 372 
Q 213 819 213 1659 
z
M 791 1659 
Q 791 1022 1069 705 
Q 1347 388 1769 388 
Q 2188 388 2466 706 
Q 2744 1025 2744 1678 
Q 2744 2294 2464 2611 
Q 2184 2928 1769 2928 
Q 1347 2928 1069 2612 
Q 791 2297 791 1659 
z
" transform="scale(0.015625)"/>
       <path id="ArialMT-6c" d="M 409 0 
L 409 4581 
L 972 4581 
L 972 0 
L 409 0 
z
" transform="scale(0.015625)"/>
       <path id="ArialMT-79" d="M 397 -1278 
L 334 -750 
Q 519 -800 656 -800 
Q 844 -800 956 -737 
Q 1069 -675 1141 -563 
Q 1194 -478 1313 -144 
Q 1328 -97 1363 -6 
L 103 3319 
L 709 3319 
L 1400 1397 
Q 1534 1031 1641 628 
Q 1738 1016 1872 1384 
L 2581 3319 
L 3144 3319 
L 1881 -56 
Q 1678 -603 1566 -809 
Q 1416 -1088 1222 -1217 
Q 1028 -1347 759 -1347 
Q 597 -1347 397 -1278 
z
" transform="scale(0.015625)"/>
      </defs>
      <use xlink:href="#ArialMT-44"/>
      <use xlink:href="#ArialMT-65" transform="translate(72.216797 0)"/>
      <use xlink:href="#ArialMT-77" transform="translate(127.832031 0)"/>
      <use xlink:href="#ArialMT-65" transform="translate(200.048828 0)"/>
      <use xlink:href="#ArialMT-74" transform="translate(255.664062 0)"/>
      <use xlink:href="#ArialMT-20" transform="translate(283.447266 0)"/>
      <use xlink:href="#ArialMT-6f" transform="translate(311.230469 0)"/>
      <use xlink:href="#ArialMT-6e" transform="translate(366.845703 0)"/>
      <use xlink:href="#ArialMT-6c" transform="translate(422.460938 0)"/>
      <use xlink:href="#ArialMT-79" transform="translate(444.677734 0)"/>
     </g>
    </g>
    <g id="patch_9">
     <path d="M 69.70996 14.325 
L 75.70996 14.325 
L 75.70996 9.2 
L 69.70996 9.2 
z
" style="fill: #abd0e6; stroke: #000000; stroke-width: 0.1; stroke-linejoin: miter"/>
    </g>
    <g id="text_11">
     <!-- Wet only -->
     <g transform="translate(79.70996 13.45) scale(0.05 -0.05)">
      <use xlink:href="#ArialMT-57"/>
      <use xlink:href="#ArialMT-65" transform="translate(92.634766 0)"/>
      <use xlink:href="#ArialMT-74" transform="translate(148.25 0)"/>
      <use xlink:href="#ArialMT-20" transform="translate(176.033203 0)"/>
      <use xlink:href="#ArialMT-6f" transform="translate(203.816406 0)"/>
      <use xlink:href="#ArialMT-6e" transform="translate(259.431641 0)"/>
      <use xlink:href="#ArialMT-6c" transform="translate(315.046875 0)"/>
      <use xlink:href="#ArialMT-79" transform="translate(337.263672 0)"/>
     </g>
    </g>
    <g id="patch_10">
     <path d="M 69.70996 22.127344 
L 75.70996 22.127344 
L 75.70996 17.002344 
L 69.70996 17.002344 
z
" style="fill: #f7fbff; stroke: #000000; stroke-width: 0.1; stroke-linejoin: miter"/>
    </g>
    <g id="text_12">
     <!-- Lost behavior -->
     <g transform="translate(79.70996 21.252344) scale(0.05 -0.05)">
      <defs>
       <path id="ArialMT-4c" d="M 469 0 
L 469 4581 
L 1075 4581 
L 1075 541 
L 3331 541 
L 3331 0 
L 469 0 
z
" transform="scale(0.015625)"/>
       <path id="ArialMT-73" d="M 197 991 
L 753 1078 
Q 800 744 1014 566 
Q 1228 388 1613 388 
Q 2000 388 2187 545 
Q 2375 703 2375 916 
Q 2375 1106 2209 1216 
Q 2094 1291 1634 1406 
Q 1016 1563 777 1677 
Q 538 1791 414 1992 
Q 291 2194 291 2438 
Q 291 2659 392 2848 
Q 494 3038 669 3163 
Q 800 3259 1026 3326 
Q 1253 3394 1513 3394 
Q 1903 3394 2198 3281 
Q 2494 3169 2634 2976 
Q 2775 2784 2828 2463 
L 2278 2388 
Q 2241 2644 2061 2787 
Q 1881 2931 1553 2931 
Q 1166 2931 1000 2803 
Q 834 2675 834 2503 
Q 834 2394 903 2306 
Q 972 2216 1119 2156 
Q 1203 2125 1616 2013 
Q 2213 1853 2448 1751 
Q 2684 1650 2818 1456 
Q 2953 1263 2953 975 
Q 2953 694 2789 445 
Q 2625 197 2315 61 
Q 2006 -75 1616 -75 
Q 969 -75 630 194 
Q 291 463 197 991 
z
" transform="scale(0.015625)"/>
       <path id="ArialMT-62" d="M 941 0 
L 419 0 
L 419 4581 
L 981 4581 
L 981 2947 
Q 1338 3394 1891 3394 
Q 2197 3394 2470 3270 
Q 2744 3147 2920 2923 
Q 3097 2700 3197 2384 
Q 3297 2069 3297 1709 
Q 3297 856 2875 390 
Q 2453 -75 1863 -75 
Q 1275 -75 941 416 
L 941 0 
z
M 934 1684 
Q 934 1088 1097 822 
Q 1363 388 1816 388 
Q 2184 388 2453 708 
Q 2722 1028 2722 1663 
Q 2722 2313 2464 2622 
Q 2206 2931 1841 2931 
Q 1472 2931 1203 2611 
Q 934 2291 934 1684 
z
" transform="scale(0.015625)"/>
       <path id="ArialMT-68" d="M 422 0 
L 422 4581 
L 984 4581 
L 984 2938 
Q 1378 3394 1978 3394 
Q 2347 3394 2619 3248 
Q 2891 3103 3008 2847 
Q 3125 2591 3125 2103 
L 3125 0 
L 2563 0 
L 2563 2103 
Q 2563 2525 2380 2717 
Q 2197 2909 1863 2909 
Q 1613 2909 1392 2779 
Q 1172 2650 1078 2428 
Q 984 2206 984 1816 
L 984 0 
L 422 0 
z
" transform="scale(0.015625)"/>
       <path id="ArialMT-76" d="M 1344 0 
L 81 3319 
L 675 3319 
L 1388 1331 
Q 1503 1009 1600 663 
Q 1675 925 1809 1294 
L 2547 3319 
L 3125 3319 
L 1869 0 
L 1344 0 
z
" transform="scale(0.015625)"/>
       <path id="ArialMT-69" d="M 425 3934 
L 425 4581 
L 988 4581 
L 988 3934 
L 425 3934 
z
M 425 0 
L 425 3319 
L 988 3319 
L 988 0 
L 425 0 
z
" transform="scale(0.015625)"/>
       <path id="ArialMT-72" d="M 416 0 
L 416 3319 
L 922 3319 
L 922 2816 
Q 1116 3169 1280 3281 
Q 1444 3394 1641 3394 
Q 1925 3394 2219 3213 
L 2025 2691 
Q 1819 2813 1613 2813 
Q 1428 2813 1281 2702 
Q 1134 2591 1072 2394 
Q 978 2094 978 1738 
L 978 0 
L 416 0 
z
" transform="scale(0.015625)"/>
      </defs>
      <use xlink:href="#ArialMT-4c"/>
      <use xlink:href="#ArialMT-6f" transform="translate(55.615234 0)"/>
      <use xlink:href="#ArialMT-73" transform="translate(111.230469 0)"/>
      <use xlink:href="#ArialMT-74" transform="translate(161.230469 0)"/>
      <use xlink:href="#ArialMT-20" transform="translate(189.013672 0)"/>
      <use xlink:href="#ArialMT-62" transform="translate(216.796875 0)"/>
      <use xlink:href="#ArialMT-65" transform="translate(272.412109 0)"/>
      <use xlink:href="#ArialMT-68" transform="translate(328.027344 0)"/>
      <use xlink:href="#ArialMT-61" transform="translate(383.642578 0)"/>
      <use xlink:href="#ArialMT-76" transform="translate(439.257812 0)"/>
      <use xlink:href="#ArialMT-69" transform="translate(489.257812 0)"/>
      <use xlink:href="#ArialMT-6f" transform="translate(511.474609 0)"/>
      <use xlink:href="#ArialMT-72" transform="translate(567.089844 0)"/>
     </g>
    </g>
   </g>
  </g>
 </g>
 <defs>
  <clipPath id="p026059a2ce">
   <rect x="29.722656" y="31.285515" width="72.729296" height="66.463789"/>
  </clipPath>
 </defs>
</svg>
